<svg width="32" height="32" viewBox="0 0 32 32" fill="none" xmlns="http://www.w3.org/2000/svg">
<g clip-path="url(#clip0_738_292)">
<circle cx="16" cy="16" r="16" fill="#FFFAFA"/>
<g clip-path="url(#clip1_738_292)">
<path fill-rule="evenodd" clip-rule="evenodd" d="M27.7994 22.3704L27.8013 22.373C28.1307 22.8032 28.2888 24.2316 26.0258 23.9779C25.3596 23.9033 24.4282 23.7715 23.3088 23.3471C22.5551 23.0613 21.8986 22.7026 21.3584 22.3522C20.4699 22.7098 19.5118 22.9296 18.5113 22.9857C17.1436 24.8155 14.9602 26 12.5 26C11.6915 26 10.9113 25.8717 10.1797 25.6339C9.74011 25.8891 9.24029 26.1376 8.68784 26.3471C7.56846 26.7715 6.63944 26.9297 5.97087 26.9779C5.47023 27.014 5.11818 26.9883 4.94405 26.9681C4.5624 26.9239 4.21948 26.7064 4.07209 26.3397C3.94276 26.0179 3.98955 25.6519 4.19549 25.3728C4.44815 25.0283 4.68039 24.6673 4.89993 24.3011C5.32804 23.5868 5.74787 22.8167 5.85413 21.9789C5.30843 20.9383 4.99996 19.7539 4.99996 18.5C4.99996 15.5058 6.75451 12.9215 9.29155 11.719C10.3014 7.85296 13.8175 5 18 5C22.9706 5 27 9.02944 27 14C27 15.3736 26.6916 16.6778 26.1395 17.8448C25.9492 19.5687 26.8157 21.0204 27.7994 22.3704ZM11 14C11 10.134 14.134 7 18 7C21.866 7 25 10.134 25 14C25 15.1198 24.7378 16.1756 24.2723 17.1118C24.2242 17.2085 24.1921 17.3124 24.1772 17.4194C23.9584 18.9943 24.3278 20.43 25.0822 21.8083C23.9902 21.5451 22.9611 21.0631 22.0522 20.4035C21.7546 20.1875 21.3625 20.1523 21.0312 20.3117C20.1152 20.7525 19.0879 21 18 21C14.134 21 11 17.866 11 14ZM9.00348 14.2543C9.11884 18.4129 12.0552 21.8664 15.9674 22.7695C15.0213 23.5389 13.8145 24 12.5 24C11.7707 24 11.0768 23.8586 10.4427 23.6026C10.1414 23.481 9.79989 23.5133 9.5268 23.6892C9.08793 23.972 8.56611 24.2543 7.97875 24.477C7.58887 24.6248 7.23258 24.7316 6.91441 24.8083C7.24673 24.2012 7.58327 23.4779 7.73839 22.7971C7.81498 22.461 7.85715 22.1339 7.8762 21.8266C7.88843 21.6293 7.84187 21.4327 7.7424 21.2618C7.27053 20.451 6.99996 19.5086 6.99996 18.5C6.99996 16.7904 7.77995 15.263 9.00348 14.2543Z" fill="#DB7274"/>
</g>
</g>
<defs>
<clipPath id="clip0_738_292">
<rect width="32" height="32" fill="white"/>
</clipPath>
<clipPath id="clip1_738_292">
<rect width="24" height="22" fill="white" transform="translate(4 5)"/>
</clipPath>
</defs>
</svg>
