<svg width="155" height="28" viewBox="0 0 155 28" fill="none" xmlns="http://www.w3.org/2000/svg">
<path d="M9.152 27.432C7.808 27.432 6.608 27.204 5.552 26.748C4.496 26.292 3.596 25.644 2.852 24.804C2.108 23.94 1.532 22.908 1.124 21.708C0.74 20.484 0.548 19.128 0.548 17.64C0.548 16.152 0.74 14.808 1.124 13.608C1.532 12.384 2.108 11.352 2.852 10.512C3.596 9.648 4.496 8.988 5.552 8.532C6.608 8.076 7.808 7.848 9.152 7.848C10.52 7.848 11.72 8.088 12.752 8.568C13.808 9.048 14.684 9.72 15.38 10.584C16.076 11.424 16.592 12.408 16.928 13.536C17.288 14.664 17.468 15.876 17.468 17.172V18.648H4.616V19.26C4.616 20.7 5.036 21.888 5.876 22.824C6.74 23.736 7.964 24.192 9.548 24.192C10.7 24.192 11.672 23.94 12.464 23.436C13.256 22.932 13.928 22.248 14.48 21.384L16.784 23.652C16.088 24.804 15.08 25.728 13.76 26.424C12.44 27.096 10.904 27.432 9.152 27.432ZM9.152 10.908C8.48 10.908 7.856 11.028 7.28 11.268C6.728 11.508 6.248 11.844 5.84 12.276C5.456 12.708 5.156 13.224 4.94 13.824C4.724 14.424 4.616 15.084 4.616 15.804V16.056H13.328V15.696C13.328 14.256 12.956 13.104 12.212 12.24C11.468 11.352 10.448 10.908 9.152 10.908ZM21.8119 27V8.28H25.7359V11.376H25.9159C26.3239 10.368 26.9359 9.528 27.7519 8.856C28.5919 8.184 29.7319 7.848 31.1719 7.848C33.0919 7.848 34.5799 8.484 35.6359 9.756C36.7159 11.004 37.2559 12.792 37.2559 15.12V27H33.3319V15.624C33.3319 12.696 32.1559 11.232 29.8039 11.232C29.2999 11.232 28.7959 11.304 28.2919 11.448C27.8119 11.568 27.3799 11.76 26.9959 12.024C26.6119 12.288 26.2999 12.624 26.0599 13.032C25.8439 13.44 25.7359 13.92 25.7359 14.472V27H21.8119ZM49.9307 27.432C48.5867 27.432 47.3867 27.204 46.3307 26.748C45.2747 26.292 44.3867 25.644 43.6667 24.804C42.9467 23.94 42.3947 22.908 42.0107 21.708C41.6267 20.484 41.4347 19.128 41.4347 17.64C41.4347 16.152 41.6267 14.808 42.0107 13.608C42.3947 12.384 42.9467 11.352 43.6667 10.512C44.3867 9.648 45.2747 8.988 46.3307 8.532C47.3867 8.076 48.5867 7.848 49.9307 7.848C51.8027 7.848 53.3387 8.268 54.5387 9.108C55.7387 9.948 56.6147 11.064 57.1667 12.456L53.9267 13.968C53.6627 13.104 53.1947 12.42 52.5227 11.916C51.8747 11.388 51.0107 11.124 49.9307 11.124C48.4907 11.124 47.3987 11.58 46.6547 12.492C45.9347 13.38 45.5747 14.544 45.5747 15.984V19.332C45.5747 20.772 45.9347 21.948 46.6547 22.86C47.3987 23.748 48.4907 24.192 49.9307 24.192C51.0827 24.192 51.9947 23.916 52.6667 23.364C53.3627 22.788 53.9147 22.032 54.3227 21.096L57.3107 22.68C56.6867 24.216 55.7507 25.392 54.5027 26.208C53.2547 27.024 51.7307 27.432 49.9307 27.432ZM68.1793 27.432C66.8833 27.432 65.6953 27.204 64.6153 26.748C63.5593 26.292 62.6593 25.644 61.9153 24.804C61.1713 23.94 60.5953 22.908 60.1873 21.708C59.7793 20.484 59.5753 19.128 59.5753 17.64C59.5753 16.152 59.7793 14.808 60.1873 13.608C60.5953 12.384 61.1713 11.352 61.9153 10.512C62.6593 9.648 63.5593 8.988 64.6153 8.532C65.6953 8.076 66.8833 7.848 68.1793 7.848C69.4753 7.848 70.6513 8.076 71.7073 8.532C72.7873 8.988 73.6993 9.648 74.4433 10.512C75.1873 11.352 75.7633 12.384 76.1713 13.608C76.5793 14.808 76.7833 16.152 76.7833 17.64C76.7833 19.128 76.5793 20.484 76.1713 21.708C75.7633 22.908 75.1873 23.94 74.4433 24.804C73.6993 25.644 72.7873 26.292 71.7073 26.748C70.6513 27.204 69.4753 27.432 68.1793 27.432ZM68.1793 24.192C69.5233 24.192 70.6033 23.784 71.4193 22.968C72.2353 22.128 72.6433 20.88 72.6433 19.224V16.056C72.6433 14.4 72.2353 13.164 71.4193 12.348C70.6033 11.508 69.5233 11.088 68.1793 11.088C66.8353 11.088 65.7553 11.508 64.9393 12.348C64.1233 13.164 63.7153 14.4 63.7153 16.056V19.224C63.7153 20.88 64.1233 22.128 64.9393 22.968C65.7553 23.784 66.8353 24.192 68.1793 24.192ZM81.1557 27V8.28H85.0797V11.376H85.2597C85.6677 10.368 86.2797 9.528 87.0957 8.856C87.9357 8.184 89.0757 7.848 90.5157 7.848C92.4357 7.848 93.9237 8.484 94.9797 9.756C96.0597 11.004 96.5997 12.792 96.5997 15.12V27H92.6757V15.624C92.6757 12.696 91.4997 11.232 89.1477 11.232C88.6437 11.232 88.1397 11.304 87.6357 11.448C87.1557 11.568 86.7237 11.76 86.3397 12.024C85.9557 12.288 85.6437 12.624 85.4037 13.032C85.1877 13.44 85.0797 13.92 85.0797 14.472V27H81.1557ZM107.222 27C105.854 27 104.822 26.652 104.126 25.956C103.43 25.236 103.082 24.228 103.082 22.932V11.484H100.166V8.28H101.75C102.398 8.28 102.842 8.136 103.082 7.848C103.346 7.56 103.478 7.092 103.478 6.444V3.168H107.006V8.28H110.93V11.484H107.006V23.796H110.642V27H107.222ZM115.187 27V8.28H119.111V11.88H119.291C119.555 10.92 120.107 10.08 120.947 9.36C121.787 8.64 122.951 8.28 124.439 8.28H125.483V12.06H123.935C122.375 12.06 121.175 12.312 120.335 12.816C119.519 13.32 119.111 14.064 119.111 15.048V27H115.187Z" fill="#FFF4F4"/>
<path d="M130.948 4.932C130.132 4.932 129.532 4.74 129.148 4.356C128.788 3.972 128.608 3.48 128.608 2.88V2.268C128.608 1.668 128.788 1.176 129.148 0.791998C129.532 0.407999 130.132 0.215999 130.948 0.215999C131.764 0.215999 132.352 0.407999 132.712 0.791998C133.072 1.176 133.252 1.668 133.252 2.268V2.88C133.252 3.48 133.072 3.972 132.712 4.356C132.352 4.74 131.764 4.932 130.948 4.932ZM128.968 8.28H132.892V27H128.968V8.28ZM150.268 23.904H150.088C149.68 25.008 149.008 25.872 148.072 26.496C147.16 27.12 146.08 27.432 144.832 27.432C142.456 27.432 140.62 26.58 139.324 24.876C138.028 23.148 137.38 20.736 137.38 17.64C137.38 14.544 138.028 12.144 139.324 10.44C140.62 8.712 142.456 7.848 144.832 7.848C146.08 7.848 147.16 8.16 148.072 8.784C149.008 9.384 149.68 10.248 150.088 11.376H150.268V0.36H154.191V27H150.268V23.904ZM146.02 24.048C147.22 24.048 148.228 23.76 149.044 23.184C149.86 22.584 150.268 21.804 150.268 20.844V14.436C150.268 13.476 149.86 12.708 149.044 12.132C148.228 11.532 147.22 11.232 146.02 11.232C144.652 11.232 143.56 11.676 142.744 12.564C141.928 13.428 141.52 14.58 141.52 16.02V19.26C141.52 20.7 141.928 21.864 142.744 22.752C143.56 23.616 144.652 24.048 146.02 24.048Z" fill="#DB7274"/>
</svg>
