<svg width="520" height="252" viewBox="0 0 520 252" fill="none" xmlns="http://www.w3.org/2000/svg">
<g clip-path="url(#clip0_510_661)">
<path d="M70.7485 201.475H461.827V3.23047H70.7485V201.475Z" fill="white"/>
<path d="M465.053 204.705H67.5225V0H465.053V204.705ZM73.9746 198.244H458.601V6.46066H73.9746V198.244Z" fill="#E5E5E5"/>
<path d="M253.274 45.1699V112.456H155.592L137.545 134.138L139.606 112.456H130.825V45.1699H253.274Z" fill="#DB7274"/>
<path d="M312.389 49.162V92.3033H375.018L386.589 106.204L385.268 92.3033H390.897V49.162H312.389Z" fill="#F0F0F0"/>
<path d="M53.9137 245.637H59.5642L62.2525 223.813H53.9131L53.9137 245.637Z" fill="#FFB7B7"/>
<path d="M52.4727 243.79L63.6005 243.789C65.4812 243.789 67.2853 244.538 68.6152 245.869C69.9451 247.201 70.6923 249.007 70.6924 250.89V251.121L52.473 251.122L52.4727 243.79Z" fill="#2F2E41"/>
<path d="M121.799 245.451L127.286 244.099L124.689 222.265L116.591 224.26L121.799 245.451Z" fill="#FFB7B7"/>
<path d="M119.959 244.002L130.765 241.339C132.591 240.89 134.522 241.184 136.131 242.159C137.74 243.134 138.896 244.709 139.346 246.538L139.401 246.762L121.709 251.122L119.959 244.002Z" fill="#2F2E41"/>
<path d="M50.439 240.433L51.6128 234.42C51.6128 234.42 53.7734 211.201 69.2797 188.028L74.327 162.855C74.327 162.855 72.828 143.801 87.2957 133.487L91.756 130.411L107.394 131.308L111.006 151.108L118.283 197.957C118.283 197.957 120.161 198.134 120.866 203.551C122.297 205.826 123.144 208.421 123.331 211.103C123.331 211.103 127.055 221.391 128.053 228.966L127.935 236.378L120.071 240.573L103.68 194.156L91.9562 168.206C91.9562 168.206 86.3135 186.49 77.6707 202.153C77.6707 202.153 65.8329 227.809 63.468 233.021L60.8856 241.552L50.439 240.433Z" fill="#2F2E41"/>
<path d="M102.726 90.5686C108.899 90.5686 113.904 85.5576 113.904 79.3762C113.904 73.1947 108.899 68.1837 102.726 68.1837C96.5527 68.1837 91.5483 73.1947 91.5483 79.3762C91.5483 85.5576 96.5527 90.5686 102.726 90.5686Z" fill="#FFB7B7"/>
<path d="M102.726 90.5686C108.899 90.5686 113.904 85.5576 113.904 79.3762C113.904 73.1947 108.899 68.1837 102.726 68.1837C96.5527 68.1837 91.5483 73.1947 91.5483 79.3762C91.5483 85.5576 96.5527 90.5686 102.726 90.5686Z" fill="#FFB8B8"/>
<path d="M87.3286 133.607L91.0185 124.378C88.4115 115.922 88.5713 106.854 91.4746 98.4956L92.1805 97.9135C98.3307 92.8419 103.729 93.7652 108.738 99.969C109.544 100.978 110.488 101.868 111.541 102.615C113.75 104.167 117.255 112.6 112.627 117.542L108.925 139.167C109.315 151.107 100.662 146.611 87.3286 133.607Z" fill="#3F3D56"/>
<path d="M140.237 121.054C139.759 120.693 139.209 120.441 138.624 120.315C138.039 120.19 137.433 120.195 136.85 120.329C136.267 120.463 135.721 120.724 135.249 121.093C134.778 121.462 134.393 121.929 134.121 122.463L124.798 121.736L122.975 127.302L136.156 128.143C137.082 128.541 138.121 128.584 139.076 128.265C140.032 127.946 140.838 127.288 141.341 126.414C141.844 125.54 142.009 124.512 141.806 123.524C141.602 122.536 141.044 121.657 140.237 121.054Z" fill="#FFB7B7"/>
<path d="M131.31 130.083L104.742 125.116L96.1013 110.609C95.5461 109.068 95.6252 107.369 96.3211 105.885C97.017 104.402 98.2729 103.257 99.8123 102.701C101.352 102.145 103.049 102.224 104.53 102.921C106.011 103.618 107.155 104.875 107.71 106.417L111.763 117.639L132.774 121.122L131.31 130.083Z" fill="#CCCCCC"/>
<path d="M82.8017 76.9248C88.7242 76.9248 93.5253 72.1173 93.5253 66.187C93.5253 60.2567 88.7242 55.4492 82.8017 55.4492C76.8792 55.4492 72.0781 60.2567 72.0781 66.187C72.0781 72.1173 76.8792 76.9248 82.8017 76.9248Z" fill="#2F2E41"/>
<path d="M73.5521 75.0786C74.94 76.0831 76.548 76.7401 78.2416 76.9948C79.9352 77.2494 81.665 77.0942 83.2864 76.5422C84.9077 75.9901 86.3735 75.0573 87.561 73.8218C88.7486 72.5862 89.6233 71.0838 90.1121 69.4404C89.9271 70.9132 89.4392 72.3316 88.6792 73.6061C87.9191 74.8805 86.9035 75.9834 85.6963 76.845C84.4891 77.7066 83.1166 78.3082 81.6655 78.6118C80.2144 78.9155 78.7162 78.9146 77.2655 78.6092C75.8147 78.3038 74.443 77.7006 73.2368 76.8376C72.0306 75.9745 71.0163 74.8705 70.2577 73.5951C69.4992 72.3197 69.013 70.9007 68.8298 69.4277C68.6466 67.9547 68.7703 66.4596 69.1933 65.0369C68.9531 66.9483 69.231 68.8892 69.9979 70.656C70.7648 72.4229 71.9925 73.9505 73.5521 75.0786Z" fill="#2F2E41"/>
<path d="M115.872 75.0905C114 71.7345 113.284 70.3327 110.87 68.2919C108.736 66.4871 106.11 65.9571 103.992 67.6672C101.487 66.5834 98.6995 66.3376 96.0437 66.9664C93.3879 67.5953 91.0055 69.0652 89.2504 71.1578C87.4953 73.2504 86.4611 75.854 86.3015 78.582C86.1419 81.31 86.8653 84.0168 88.3644 86.3003C89.8634 88.5838 92.0581 90.3222 94.6224 91.2573C97.1867 92.1924 99.9839 92.2743 102.598 91.4908C105.213 90.7073 107.505 89.1002 109.135 86.9083C110.765 84.7164 111.645 82.0565 111.645 79.3239C111.643 78.844 111.614 78.3646 111.558 77.888C113.399 77.6291 114.031 75.3494 115.872 75.0905Z" fill="#2F2E41"/>
<path d="M445.53 155.423C445.565 154.682 445.762 153.958 446.107 153.302C446.452 152.645 446.936 152.073 447.525 151.624C448.115 151.176 448.796 150.862 449.519 150.705C450.243 150.549 450.992 150.553 451.714 150.717L458.413 141.265L465.142 143.94L455.496 157.155C455.139 158.352 454.357 159.375 453.297 160.033C452.237 160.69 450.973 160.935 449.744 160.721C448.516 160.508 447.409 159.85 446.632 158.874C445.855 157.897 445.463 156.669 445.53 155.423Z" fill="#A0616A"/>
<path d="M452.878 147.294L464.788 127.237L459.936 114.281L466.544 96.6343L466.788 96.739C466.948 96.8075 470.703 98.4854 471.259 104.494L478.854 128.393L458.585 154.722L452.878 147.294Z" fill="#3F3D56"/>
<path d="M388.197 73.5592C388.932 73.6515 389.637 73.9039 390.264 74.2988C390.891 74.6936 391.424 75.2213 391.825 75.8446C392.226 76.4679 392.486 77.1716 392.586 77.9063C392.686 78.641 392.624 79.3887 392.404 80.0968L401.298 87.5148L398.114 94.0261L385.701 83.3738C384.538 82.9254 383.579 82.0651 383.006 80.9561C382.434 79.847 382.288 78.5663 382.595 77.3565C382.903 76.1467 383.643 75.092 384.676 74.3921C385.708 73.6922 386.961 73.3959 388.197 73.5592Z" fill="#A0616A"/>
<path d="M395.723 81.5234L414.772 94.9637L428.048 91.1214L445.107 99.0832L444.984 99.3184C444.904 99.4726 442.943 103.092 436.917 103.183L412.533 108.916L387.885 86.6465L395.723 81.5234Z" fill="#3F3D56"/>
<path d="M430.58 244.964H423.957L420.807 219.386L430.581 219.386L430.58 244.964Z" fill="#A0616A"/>
<path d="M419.227 243.069H431.999V251.121H411.186C411.186 250.064 411.394 249.017 411.798 248.04C412.202 247.063 412.794 246.175 413.541 245.427C414.288 244.68 415.174 244.086 416.15 243.682C417.125 243.277 418.171 243.069 419.227 243.069Z" fill="#2F2E41"/>
<path d="M457.049 244.964H450.426L447.276 219.386L457.05 219.386L457.049 244.964Z" fill="#A0616A"/>
<path d="M445.696 243.069H458.468V251.121H437.654C437.654 250.064 437.862 249.017 438.266 248.04C438.671 247.063 439.263 246.175 440.01 245.427C440.756 244.68 441.643 244.086 442.618 243.682C443.594 243.277 444.64 243.069 445.696 243.069Z" fill="#2F2E41"/>
<path d="M459.404 151.603L458.864 189.465L458.323 239.227L446.439 238.145L440.497 169.452L432.935 238.145H420.666L419.43 168.911L423.752 153.766L459.404 151.603Z" fill="#2F2E41"/>
<path d="M422.568 153.997L420.757 153.919L429.167 107.532L425.723 93.5113C425.544 92.7818 425.639 92.012 425.989 91.3477C426.339 90.6833 426.92 90.1706 427.623 89.9067L433.818 87.5806L436.006 81.5537L453.274 83.4169L453.699 88.1271C455.57 88.7281 470.98 93.8667 469.916 99.7219C468.867 105.501 462.671 123.683 462.356 124.605L461.271 150.68L461.138 150.747C460.977 150.828 449.075 156.688 436.144 156.687C431.479 156.765 426.851 155.848 422.568 153.997Z" fill="#3F3D56"/>
<path d="M443.963 78.5711C450.83 78.5711 456.397 72.9972 456.397 66.1215C456.397 59.2458 450.83 53.6719 443.963 53.6719C437.097 53.6719 431.53 59.2458 431.53 66.1215C431.53 72.9972 437.097 78.5711 443.963 78.5711Z" fill="#A0616A"/>
<path d="M454.034 78.1731C451.665 80.7004 447.264 79.3437 446.956 75.891C446.932 75.623 446.933 75.3532 446.961 75.0855C447.12 73.5561 448.003 72.1676 447.791 70.5527C447.744 70.1509 447.594 69.7678 447.357 69.44C445.469 66.9083 441.037 70.5724 439.255 68.2805C438.162 66.8751 439.446 64.6625 438.608 63.0917C437.501 61.0186 434.223 62.0413 432.168 60.906C429.88 59.6428 430.017 56.129 431.523 53.9918C433.359 51.3853 436.578 49.9945 439.757 49.7941C442.936 49.5937 446.093 50.4542 449.061 51.6124C452.434 52.9283 455.778 54.7469 457.853 57.7161C460.377 61.3269 460.62 66.1812 459.357 70.4034C458.59 72.9718 455.969 76.1093 454.034 78.1731Z" fill="#2F2E41"/>
<path d="M319.327 241.524L321.174 236.767L303.728 227.369L301.001 234.39L319.327 241.524Z" fill="#FFB8B8"/>
<path d="M329.224 229.114C328.441 228.808 327.605 228.661 326.765 228.679C325.925 228.697 325.097 228.881 324.328 229.22C323.559 229.559 322.864 230.046 322.283 230.654C321.702 231.262 321.247 231.979 320.943 232.763L319.697 235.97L317.776 240.921L317.306 242.134L323.462 244.532L329.417 229.191L329.224 229.114Z" fill="#2F2E41"/>
<path d="M317.777 232.369L316.973 234.502L314.969 239.826L314.92 239.959C309.813 240.616 304.213 239.328 299.034 237.327C296.961 236.526 294.932 235.619 292.953 234.61C290.024 233.128 287.402 231.564 285.309 230.226C282.159 228.202 280.212 226.682 280.212 226.682C280.212 226.682 279.697 227.147 278.766 227.946C277.518 229.015 275.524 230.685 272.998 232.65C272.034 233.405 271 234.195 269.894 235.019C261.744 241.072 251.285 224.92 251.285 224.92C251.285 224.92 254.227 223.045 254.995 222.681C257.47 221.509 263.283 218.743 268.298 216.285C270.882 215.016 273.251 213.827 274.841 212.982C280.474 209.979 287.475 215.661 287.475 215.661L317.777 232.369Z" fill="#2F2E41"/>
<path opacity="0.14" d="M317.777 232.369L316.973 234.502L314.969 239.826L314.92 239.959C309.813 240.616 304.213 239.328 299.034 237.327C296.961 236.526 294.932 235.619 292.953 234.61C290.024 233.128 287.402 231.564 285.309 230.226C282.159 228.202 280.212 226.682 280.212 226.682C280.212 226.682 279.697 227.147 278.766 227.946C277.518 229.015 275.524 230.685 272.998 232.65C272.034 233.405 271 234.195 269.894 235.019C261.744 241.072 251.285 224.92 251.285 224.92C251.285 224.92 254.227 223.045 254.995 222.681C257.47 221.509 263.283 218.743 268.298 216.285C270.882 215.016 273.251 213.827 274.841 212.982C280.474 209.979 287.475 215.661 287.475 215.661L317.777 232.369Z" fill="black"/>
<path d="M236.257 187.591H212.141C211.645 187.59 211.169 187.393 210.819 187.041C210.468 186.69 210.271 186.214 210.27 185.717V175.309C210.27 171.61 211.738 168.062 214.35 165.446C216.962 162.831 220.505 161.361 224.199 161.361C227.893 161.361 231.436 162.831 234.048 165.446C236.66 168.062 238.128 171.61 238.128 175.309V185.717C238.127 186.214 237.93 186.69 237.579 187.041C237.229 187.393 236.753 187.59 236.257 187.591Z" fill="#2F2E41"/>
<path d="M259.191 200.665C258.629 200.763 258.096 200.984 257.629 201.311C257.162 201.639 256.773 202.064 256.488 202.559C256.203 203.053 256.03 203.604 255.981 204.173C255.932 204.741 256.007 205.314 256.203 205.85L249.646 211.889L252.339 216.775L261.48 208.116C262.357 207.727 263.062 207.029 263.46 206.155C263.858 205.281 263.923 204.29 263.64 203.372C263.358 202.454 262.749 201.671 261.929 201.172C261.109 200.673 260.135 200.492 259.191 200.665Z" fill="#FFB8B8"/>
<path d="M239.459 228.123C239.163 228.123 238.867 228.11 238.569 228.084C236.8 227.937 235.098 227.341 233.622 226.354C232.146 225.367 230.944 224.02 230.13 222.441L219.624 202.193C218.936 200.866 218.785 199.325 219.202 197.89C219.62 196.454 220.574 195.235 221.867 194.486C223.159 193.738 224.69 193.516 226.141 193.869C227.592 194.221 228.851 195.12 229.657 196.379L239.349 218.155L252.538 207.425L260.174 210.402L247.278 224.658C246.287 225.748 245.079 226.619 243.733 227.215C242.387 227.812 240.932 228.121 239.459 228.123Z" fill="#DB7274"/>
<path d="M317.853 248.216L320.06 243.614L303.386 232.902L300.129 239.693L317.853 248.216Z" fill="#FFB8B8"/>
<path d="M328.673 236.603C327.916 236.238 327.094 236.027 326.255 235.98C325.416 235.934 324.577 236.054 323.784 236.332C322.991 236.611 322.261 237.044 321.635 237.605C321.009 238.167 320.5 238.846 320.137 239.605L318.649 242.706L316.353 247.494L315.792 248.668L321.746 251.533L328.86 236.694L328.673 236.603Z" fill="#2F2E41"/>
<path d="M317.01 238.968L316.045 241.033L313.638 246.187L313.58 246.316C308.436 246.578 302.952 244.863 297.942 242.469C295.937 241.512 293.983 240.451 292.087 239.292C289.281 237.59 286.786 235.828 284.803 234.334C281.817 232.073 279.992 230.408 279.992 230.408C279.992 230.408 279.443 230.832 278.454 231.557C277.127 232.527 275.011 234.038 272.342 235.803C271.323 236.482 270.231 237.19 269.065 237.927C260.475 243.335 248.259 249.922 237.868 251.312C219.619 253.756 223.915 229.371 223.915 229.371L238.438 221.819L244.604 223.072L251.469 224.462L253.901 224.958C253.901 224.958 254.363 224.783 255.157 224.479C257.714 223.501 263.722 221.19 268.911 219.125C271.585 218.059 274.038 217.056 275.689 216.335C281.535 213.775 288.079 219.978 288.079 219.978L317.01 238.968Z" fill="#2F2E41"/>
<path d="M197.338 251.894C197.894 251.767 198.415 251.519 198.864 251.168C199.314 250.817 199.681 250.371 199.94 249.863C200.199 249.354 200.343 248.795 200.363 248.225C200.383 247.654 200.277 247.087 200.054 246.561L206.291 240.191L203.349 235.451L194.668 244.572C193.811 245.006 193.144 245.739 192.791 246.632C192.439 247.526 192.426 248.518 192.755 249.421C193.084 250.324 193.733 251.074 194.577 251.53C195.422 251.986 196.405 252.115 197.338 251.894Z" fill="#FFB8B8"/>
<path d="M227.613 188.055C232.984 188.055 237.337 183.696 237.337 178.319C237.337 172.941 232.984 168.582 227.613 168.582C222.243 168.582 217.89 172.941 217.89 178.319C217.89 183.696 222.243 188.055 227.613 188.055Z" fill="#FFB8B8"/>
<path d="M214.963 205.347L223.434 229.393L223.383 229.477C222.205 231.427 221.82 233 222.27 234.026C222.388 234.287 222.562 234.519 222.778 234.706C222.995 234.893 223.25 235.031 223.525 235.11L243.569 221.081L242.867 215.458L242.907 215.395C244.844 212.291 245.471 209.48 244.771 207.04C244.137 205.066 242.768 203.412 240.948 202.423L240.878 202.368L230.881 190.183L217.516 192.561L214.963 205.347Z" fill="#DB7274"/>
<path d="M202.082 247.553L196.408 240.56L210.087 217.949L216.465 198.209C216.813 197.131 217.388 196.14 218.151 195.303C218.915 194.466 219.848 193.802 220.889 193.357C221.93 192.912 223.054 192.695 224.186 192.722C225.318 192.749 226.43 193.018 227.449 193.512C228.468 194.006 229.369 194.712 230.092 195.584C230.816 196.456 231.344 197.473 231.641 198.567C231.938 199.661 231.998 200.805 231.816 201.924C231.634 203.043 231.215 204.109 230.586 205.052L218.878 222.617L202.082 247.553Z" fill="#DB7274"/>
<path d="M241.423 176.35H226.677L226.526 174.23L225.77 176.35H223.499L223.2 172.148L221.701 176.35H217.308V176.141C217.311 173.216 218.473 170.412 220.538 168.344C222.604 166.275 225.405 165.112 228.326 165.108H230.405C233.326 165.112 236.127 166.275 238.193 168.344C240.258 170.412 241.42 173.216 241.423 176.141V176.35Z" fill="#2F2E41"/>
<path d="M226.557 189.534C226.446 189.534 226.335 189.524 226.226 189.504L215.428 187.597V169.727H227.314L227.02 170.071C222.925 174.852 226.01 182.605 228.213 186.801C228.376 187.109 228.448 187.456 228.422 187.802C228.396 188.149 228.273 188.481 228.067 188.761C227.894 189 227.667 189.195 227.405 189.329C227.142 189.464 226.851 189.534 226.557 189.534Z" fill="#2F2E41"/>
<path d="M387.88 157.52V182.694H276.506L260.424 202.015L262.261 182.694H254.436V157.52H387.88Z" fill="#F0F0F0"/>
<path d="M300.739 174.629C303.255 174.629 305.295 172.586 305.295 170.067C305.295 167.547 303.255 165.504 300.739 165.504C298.222 165.504 296.182 167.547 296.182 170.067C296.182 172.586 298.222 174.629 300.739 174.629Z" fill="white"/>
<path d="M285.361 174.629C287.877 174.629 289.917 172.586 289.917 170.067C289.917 167.547 287.877 165.504 285.361 165.504C282.844 165.504 280.804 167.547 280.804 170.067C280.804 172.586 282.844 174.629 285.361 174.629Z" fill="white"/>
<path d="M269.983 174.629C272.499 174.629 274.539 172.586 274.539 170.067C274.539 167.547 272.499 165.504 269.983 165.504C267.466 165.504 265.426 167.547 265.426 170.067C265.426 172.586 267.466 174.629 269.983 174.629Z" fill="white"/>
<path d="M519.43 251.62H0.569551C0.418497 251.62 0.273629 251.56 0.166817 251.453C0.0600057 251.346 0 251.201 0 251.05C0 250.899 0.0600057 250.754 0.166817 250.647C0.273629 250.54 0.418497 250.48 0.569551 250.48H519.43C519.581 250.48 519.726 250.54 519.833 250.647C519.94 250.754 520 250.899 520 251.05C520 251.201 519.94 251.346 519.833 251.453C519.726 251.56 519.581 251.62 519.43 251.62Z" fill="#CACACA"/>
</g>
<defs>
<clipPath id="clip0_510_661">
<rect width="520" height="252" fill="white"/>
</clipPath>
</defs>
</svg>
