<svg width="385" height="252" viewBox="0 0 385 252" fill="none" xmlns="http://www.w3.org/2000/svg">
<g clip-path="url(#clip0_510_584)">
<path d="M355.024 121.685H43.0028C38.8205 121.685 35.418 118.282 35.418 114.099V7.58486C35.418 3.40255 38.8205 0 43.0028 0H355.024C359.206 0 362.609 3.40255 362.609 7.58486V114.099C362.609 118.282 359.206 121.685 355.024 121.685ZM43.0028 0.904284C39.3192 0.904284 36.3223 3.90127 36.3223 7.58486V114.099C36.3223 117.783 39.3192 120.78 43.0028 120.78H355.024C358.707 120.78 361.704 117.783 361.704 114.099V7.58486C361.704 3.90127 358.707 0.904284 355.024 0.904284H43.0028Z" fill="#3F3D56"/>
<path d="M384.788 248.93H0V249.691H384.788V248.93Z" fill="#E6E6E6"/>
<path d="M384.788 210.046H0V210.807H384.788V210.046Z" fill="#E6E6E6"/>
<path d="M175.359 125.602C175.635 129.074 177.651 131.746 179.86 131.57C182.07 131.394 183.637 128.436 183.36 124.963C183.269 123.574 182.846 122.227 182.127 121.035L180.77 106.337L173.887 107.12L175.955 121.527C175.434 122.818 175.229 124.215 175.359 125.602Z" fill="#FFB6B6"/>
<path d="M167.135 57.0302C167.135 57.0302 173.57 53.6238 176.833 58.7142C180.096 63.8047 182.348 118.859 182.348 118.859L173.304 119.824L171.59 81.0292L167.135 57.0302Z" fill="#E6E6E6"/>
<path d="M153.779 207.174L159.019 207.173L161.511 186.965L153.778 186.965L153.779 207.174Z" fill="#FFB6B6"/>
<path d="M171.729 207.055C171.892 207.329 171.979 208.216 171.979 208.536C171.979 209.518 171.182 210.314 170.2 210.314H153.975C153.305 210.314 152.762 209.771 152.762 209.101V208.425C152.762 208.425 151.96 206.395 153.612 203.893C153.612 203.893 155.666 205.852 158.735 202.783L159.64 201.144L166.191 205.935L169.822 206.382C170.616 206.479 171.321 206.366 171.729 207.055Z" fill="#2F2E41"/>
<path d="M184.098 206.306L189.174 205.009L186.587 184.812L179.095 186.727L184.098 206.306Z" fill="#FFB6B6"/>
<path d="M201.46 201.748C201.686 201.974 201.989 202.812 202.068 203.121C202.311 204.073 201.737 205.041 200.785 205.284L185.065 209.3C184.416 209.466 183.755 209.074 183.589 208.425L183.422 207.771C183.422 207.771 182.142 206.002 183.124 203.169C183.124 203.169 185.599 204.559 187.813 200.826L188.284 199.013L195.817 202.034L199.445 201.568C200.239 201.466 200.894 201.183 201.46 201.748Z" fill="#2F2E41"/>
<path d="M149.445 52.686L149.197 50.8833L152.149 43.6726L160.261 42.7712L162.013 53.0943L149.445 52.686Z" fill="#FFB6B6"/>
<path opacity="0.1" d="M149.445 52.686L149.197 50.8833L152.149 43.6726L160.261 42.7712L162.013 53.0943L149.445 52.686Z" fill="black"/>
<path d="M139.981 103.612L136.375 113.527L139.08 118.935L152.6 197.352H161.588L159.81 127.948L180.541 197.352H189.438L182.284 150.482L176.936 107.217L173.692 105.213L158.008 96.4011L139.981 103.612Z" fill="#2F2E41"/>
<path d="M162.965 110.372L157.557 111.273L150.347 94.1478H166.571L162.965 110.372Z" fill="#E6E6E6"/>
<path d="M173.781 105.865L162.965 110.372L159.36 102.26L157.557 111.273L138.629 105.18L141.333 94.1478L138.629 58.094L148.174 51.7305L149.445 50.8833L161.162 51.7846L162.19 52.3435L169.275 56.2914L171.077 86.0357L173.781 105.865Z" fill="#2F2E41"/>
<path d="M162.19 52.3435L157.107 73.8676L148.174 51.7305L149.445 50.8833L161.163 51.7846L162.19 52.3435Z" fill="#E6E6E6"/>
<path d="M153.501 50.8833L151.699 53.9879L153.501 55.0228L152.6 73.9235L156.205 78.825L159.811 71.5808L157.107 55.0228L158.008 50.8833H153.501Z" fill="#2F2E41"/>
<path d="M156.205 49.0806C160.934 49.0806 164.768 45.2469 164.768 40.5178C164.768 35.7888 160.934 31.9551 156.205 31.9551C151.476 31.9551 147.643 35.7888 147.643 40.5178C147.643 45.2469 151.476 49.0806 156.205 49.0806Z" fill="#FFB6B6"/>
<path d="M150.733 41.269L152.583 42.0764L153.391 37.2317C153.391 37.2317 156.62 35.6168 159.043 36.4243C161.465 37.2317 165.502 36.4243 165.502 36.4243C165.502 36.4243 165.502 28.3497 159.85 28.3497C154.198 28.3497 148.546 29.1572 148.546 31.5795C148.546 34.0019 146.123 36.4243 146.123 36.4243C146.123 36.4243 142.894 41.269 146.123 44.4988C149.353 47.7286 150.968 47.7286 150.968 47.7286L150.733 41.269Z" fill="#2F2E41"/>
<path d="M134.118 125.348C134.025 128.83 135.745 131.701 137.961 131.761C140.177 131.82 142.049 129.046 142.143 125.562C142.199 124.171 141.922 122.787 141.333 121.526L141.545 106.767L134.617 106.815L135.144 121.36C134.488 122.588 134.137 123.956 134.118 125.348Z" fill="#FFB6B6"/>
<path d="M142.689 56.2745C142.689 56.2745 136.831 54.4718 134.127 59.8799C131.423 65.288 135.028 120.27 135.028 120.27H144.123L141.709 81.5121L142.689 56.2745Z" fill="#E6E6E6"/>
<path d="M367.437 158.706L345.589 152.017C345.105 151.869 344.598 151.815 344.095 151.858L233.364 161.282C231.785 161.416 231.389 163.546 232.813 164.24L236.36 165.968H236.265V248.688H239.608V167.55L250.724 172.966C251.574 173.38 252.524 173.549 253.465 173.454L254.648 173.335V248.688H257.99V172.997L343.634 164.346V248.688H346.977V164.008L361.181 162.574V248.688H364.523V162.236L367.115 161.974C368.934 161.791 369.185 159.241 367.437 158.706Z" fill="#3F3D56"/>
<path d="M265.51 160.955C267.599 160.955 298.514 157.195 298.514 157.195L303.11 163.461L270.941 169.728L265.51 160.955Z" fill="white"/>
<path d="M299.44 245.475L294.069 245.466L291.549 224.744L299.477 224.758L299.44 245.475Z" fill="#A0616A"/>
<path d="M281.038 245.322C280.87 245.603 280.78 246.512 280.78 246.84C280.778 247.847 281.593 248.664 282.6 248.666L299.234 248.694C299.92 248.696 300.478 248.14 300.479 247.453L300.481 246.76C300.481 246.76 301.307 244.68 299.617 242.112C299.617 242.112 297.508 244.117 294.367 240.966L293.442 239.283L286.718 244.183L282.995 244.635C282.18 244.734 281.458 244.617 281.038 245.322Z" fill="#2F2E41"/>
<path d="M328.268 235.839L324.03 239.036L309.684 224.211L315.938 219.494L328.268 235.839Z" fill="#A0616A"/>
<path d="M313.677 246.695C313.713 247.017 314.184 247.787 314.379 248.045C314.978 248.84 316.108 248.998 316.902 248.399L330.025 238.499C330.567 238.09 330.675 237.319 330.266 236.778L329.854 236.231C329.854 236.231 329.265 234.099 326.401 233.084C326.401 233.084 325.936 235.922 321.581 235.312L319.848 234.538L317.473 242.41L314.809 244.987C314.226 245.551 313.587 245.89 313.677 246.695Z" fill="#2F2E41"/>
<path d="M317.042 128.743C317.042 133.696 313.027 137.711 308.074 137.711C303.121 137.711 299.105 133.696 299.105 128.743C299.105 123.79 303.121 119.774 308.074 119.774C313.027 119.774 317.042 123.79 317.042 128.743Z" fill="#A0616A"/>
<path d="M316.197 180.453C316.197 180.453 283.177 178.584 281.307 182.322C279.438 186.06 291.412 237.408 291.412 237.408L302.095 235.169L296.883 199.144C296.883 199.144 324.438 206.441 328.177 197.719C331.915 188.997 330.839 185.749 330.839 185.749L316.197 180.453Z" fill="#2F2E41"/>
<path d="M324.658 174.178C324.658 174.178 292.319 181.111 291.505 185.21C290.692 189.31 315.822 235.661 315.822 235.661L325.532 230.676L310.976 197.312C310.976 197.312 339.48 197.061 340.778 187.66C342.075 178.26 340.178 175.412 340.178 175.412L324.658 174.178Z" fill="#2F2E41"/>
<path d="M328.346 139.021H312.81L302.179 156.466C302.179 156.466 299.687 167.74 302.179 168.956C304.671 170.173 304.671 183.257 304.671 183.257L330.838 185.749C330.838 185.749 334.577 146.498 333.331 142.759C332.085 139.021 328.346 139.021 328.346 139.021Z" fill="#DB7274"/>
<path d="M303.737 150.547L302.179 168.956L284.66 161.521L280.478 159.418C279.659 158.35 278.597 157.494 277.379 156.921C274.351 155.445 271.136 155.811 270.197 157.737C269.258 159.663 270.951 162.421 273.978 163.896C275.18 164.502 276.51 164.812 277.856 164.798L290.09 171.747L290.105 171.72L290.159 171.817L309.344 179.83L313.758 155.663L303.737 150.547Z" fill="#A0616A"/>
<path d="M301.867 129.987C301.867 129.987 292.522 131.233 296.26 123.134C296.26 123.134 295.69 118.743 298.467 118.446C301.244 118.15 304.983 113.165 304.983 113.165C304.983 113.165 313.553 108.804 317.99 113.165C322.427 117.526 335.511 143.071 335.511 143.071L326.789 152.416C326.789 152.416 321.545 138.631 315.444 140.228C309.344 141.825 303.736 146.586 303.736 146.586C303.736 146.586 297.545 143.488 300.329 140.787C303.113 138.087 301.867 129.987 301.867 129.987Z" fill="#2F2E41"/>
<path d="M314.328 143.694C314.328 143.694 309.967 138.087 306.852 142.448C303.737 146.809 301.245 152.416 301.245 152.416L313.705 156.778L314.328 143.694Z" fill="#DB7274"/>
<path d="M361.64 247.448L347.163 201.433L347.165 201.433H347.198L347.14 201.358L347.138 201.356L346.107 198.079L346.108 198.078C347.679 196.725 348.748 194.79 348.961 192.564L342.344 156.167C342.799 151.387 339.135 147.21 334.335 147.038L319.403 147.001C315.159 146.85 311.482 149.917 310.864 154.12L310.534 156.351L305.959 187.471C305.792 188.59 305.859 189.693 306.122 190.725L302.83 191.156L301.832 191.289L297.884 191.803L297.871 191.807L297.378 191.87H296.843V205.239H296.877V247.969C296.877 248.245 297.102 248.471 297.378 248.471C297.658 248.471 297.884 248.245 297.884 247.969V205.239H303.741L309.586 247.919C309.623 248.17 309.836 248.354 310.087 248.354C310.108 248.354 310.133 248.354 310.154 248.35C310.429 248.312 310.622 248.057 310.584 247.781L304.76 205.239H332.864C335.655 205.239 338.24 204.353 340.346 202.837L351.489 247.841C351.547 248.069 351.751 248.22 351.976 248.22C352.017 248.22 352.059 248.215 352.101 248.205C352.37 248.136 352.533 247.862 352.464 247.593L341.214 202.154C341.363 202.029 341.513 201.896 341.654 201.759L346.127 201.496L360.68 247.75C360.747 247.965 360.946 248.102 361.16 248.102C361.21 248.102 361.26 248.095 361.311 248.079C361.576 247.995 361.723 247.713 361.64 247.448ZM345.151 198.793C345.189 198.772 345.222 198.747 345.255 198.726L345.363 199.067L345.151 198.793Z" fill="#E6E6E6"/>
<path d="M77.5718 169.451L87.315 163.255L91.2761 165.645L77.5718 181.392V169.451Z" fill="#FFB6B6"/>
<path d="M64.2483 145.469C64.2483 145.469 57.7768 146.992 60.8222 155.747C63.8676 164.503 73.7652 182.775 76.8106 181.633C79.856 180.491 80.2367 169.071 80.2367 169.071C80.2367 169.071 79.856 169.451 78.3333 167.929C76.8106 166.406 76.8106 167.101 76.8106 165.421C76.8106 163.741 75.5652 162.496 75.5652 162.496L74.1459 159.554C74.1459 159.554 74.1459 145.849 68.4357 145.088C62.7256 144.327 64.2483 145.469 64.2483 145.469Z" fill="#E6E6E6"/>
<path d="M94.4832 165.235C97.0105 162.708 97.7938 159.394 96.2329 157.833C94.6719 156.272 91.3577 157.055 88.8304 159.583C86.3032 162.11 85.5198 165.424 87.0808 166.985C88.6417 168.546 91.9559 167.763 94.4832 165.235Z" fill="#FFB6B6"/>
<path d="M39.0415 195.909L45.6898 206.913L84.4336 204.62L74.1172 191.324L39.0415 195.909Z" fill="#E6E6E6"/>
<path d="M50.6183 247.376C50.3926 247.376 50.196 247.209 50.1646 246.98L38.5873 162.426C38.5529 162.175 38.7285 161.944 38.9793 161.909C39.2301 161.873 39.4613 162.05 39.4958 162.301L51.0731 246.855C51.1074 247.106 50.9319 247.337 50.6811 247.372C50.6599 247.375 50.639 247.376 50.6183 247.376Z" fill="#E6E6E6"/>
<path d="M39.0415 247.483C38.7883 247.483 38.583 247.278 38.583 247.025V162.38C38.583 162.127 38.7883 161.922 39.0415 161.922C39.2947 161.922 39.5 162.127 39.5 162.38V247.025C39.5 247.278 39.2947 247.483 39.0415 247.483Z" fill="#E6E6E6"/>
<path d="M97.1569 247.147C96.9621 247.147 96.7813 247.022 96.7197 246.826L69.324 159.75C69.248 159.509 69.3822 159.251 69.6238 159.175C69.8652 159.1 70.1228 159.234 70.1987 159.475L97.5944 246.551C97.6704 246.792 97.5362 247.05 97.2946 247.126C97.2488 247.14 97.2025 247.147 97.1569 247.147Z" fill="#E6E6E6"/>
<path d="M88.789 247.254C88.5843 247.254 88.3978 247.116 88.3449 246.909L69.317 170.058C69.2546 169.813 69.4029 169.563 69.6483 169.501C69.8945 169.439 70.1433 169.587 70.2058 169.832L89.2338 246.683C89.2961 246.928 89.1478 247.178 88.9024 247.24C88.8645 247.25 88.8264 247.254 88.789 247.254Z" fill="#E6E6E6"/>
<path d="M39.0415 163.728L70.793 163.24L76.639 196.596H39.5L39.0415 163.728Z" fill="#E6E6E6"/>
<path d="M87.836 212.776L79.834 226.865L89.1249 228.91L92.9984 218.89L87.836 212.776Z" fill="#FFB6B6"/>
<path d="M82.708 224.205C82.708 224.205 82.3971 221.907 80.5691 222.636C78.741 223.366 73.4653 226.075 73.4653 226.075C73.4653 226.075 87.2257 248.434 89.8371 247.392C92.4485 246.351 89.3224 240.03 89.3224 240.03L90.0124 228.859L82.708 224.205Z" fill="#2F2E41"/>
<path d="M52.4473 185.44C52.4473 185.44 49.5922 198.573 58.3478 203.141C67.1034 207.709 96.9865 196.479 96.9865 196.479L83.2821 217.014L92.799 220.843C92.799 220.843 114.498 192.292 112.975 187.724C111.452 183.156 101.174 182.775 101.174 182.775L77.9526 183.917L71.8618 182.014L52.4473 185.44Z" fill="#2F2E41"/>
<path d="M75.9978 219.029L63.418 229.24L71.3276 234.526L78.5817 226.602L75.9978 219.029Z" fill="#FFB6B6"/>
<path d="M67.063 227.808C67.063 227.808 67.6094 225.555 65.6414 225.569C63.6734 225.583 57.7734 226.187 57.7734 226.187C57.7734 226.187 62.4544 252.02 65.2658 252C68.0772 251.98 67.4653 244.956 67.4653 244.956L72.1732 234.801L67.063 227.808Z" fill="#2F2E41"/>
<path d="M52.9828 180.689C52.9828 180.689 45.5445 191.883 52.0375 199.324C58.5306 206.765 90.4514 207.179 90.4514 207.179L70.2146 221.319L77.6857 228.348C77.6857 228.348 108.286 209.651 108.53 204.842C108.774 200.033 99.3386 195.938 99.3386 195.938L77.2937 188.552L72.313 184.563L52.9828 180.689Z" fill="#2F2E41"/>
<path d="M72.0913 154.761C72.0913 154.761 64.8585 152.096 61.4324 152.096C61.105 152.096 60.7814 152.134 60.4579 152.203C58.2652 152.667 56.2476 154.552 55.2807 155.58C54.9038 155.983 54.6868 156.253 54.6868 156.253C54.6868 156.253 54.7096 155.991 54.7553 155.53C54.9799 153.109 55.8098 145.164 57.2982 140.078C57.8312 138.263 58.4441 136.812 59.1483 136.108C60.789 134.463 61.5466 132.492 61.8968 131.022C62.1937 129.762 62.1937 128.875 62.1937 128.875L59.4186 127.68L58.9047 124.322C58.8133 124.718 58.3908 125.491 56.9709 126.972C56.849 127.097 56.7158 127.204 56.5749 127.295C54.5269 128.582 50.3509 126.344 48.1011 124.935C49.0375 121.68 50.7354 118.703 53.8188 118.216C61.0517 117.074 61.0517 112.887 65.6198 117.455C65.9967 117.832 66.3774 118.193 66.758 118.544C68.2198 121.338 68.7528 125.084 68.9431 127.687C69.0802 129.511 69.0459 130.779 69.0459 130.779C69.0459 130.779 70.9493 142.199 73.9947 144.483C77.0401 146.767 72.0913 154.761 72.0913 154.761Z" fill="#2F2E41"/>
<path d="M58.0059 136.489L52.8623 144.033L64.4774 147.148V136.489H58.0059Z" fill="#FFB6B6"/>
<path opacity="0.1" d="M58.0059 136.489L52.8623 144.033L64.4774 147.148V136.489H58.0059Z" fill="black"/>
<path d="M65.2002 143.756L54.1606 139.188C54.1606 139.188 39.3142 145.659 40.4562 158.221C41.5982 170.784 52.2572 192.482 52.2572 192.482L73.5751 183.346L71.291 158.983L65.2002 143.756Z" fill="#E6E6E6"/>
<path d="M60.4667 139.857C65.8457 139.857 70.2063 135.497 70.2063 130.118C70.2063 124.739 65.8457 120.378 60.4667 120.378C55.0876 120.378 50.7271 124.739 50.7271 130.118C50.7271 135.497 55.0876 139.857 60.4667 139.857Z" fill="#FFB6B6"/>
<path d="M73.6141 126.591C71.7107 128.494 70.188 130.398 70.188 130.398L69.4266 127.352C69.4266 127.352 69.2515 127.482 68.9431 127.687C67.7364 128.51 64.4968 130.577 61.8968 131.022C60.7396 131.22 59.7117 131.094 59.0417 130.398C57.6218 128.917 57.1993 128.144 57.1079 127.748L56.594 131.106L53.8189 132.301C53.8189 132.301 53.8189 136.481 56.8643 139.534C57.0128 139.683 57.1574 139.865 57.2983 140.078C58.7524 142.271 59.7955 147.639 60.4579 152.203C61.0441 156.261 61.3258 159.68 61.3258 159.68C61.3258 159.68 58.4441 156.071 55.2807 155.58C55.1056 155.553 54.9304 155.534 54.7553 155.53C54.6982 155.523 54.6373 155.523 54.5802 155.523C51.1541 155.523 43.9213 158.187 43.9213 158.187C43.9213 158.187 38.9725 150.193 42.0179 147.909C45.0633 145.625 46.9667 134.205 46.9667 134.205C46.9667 134.205 46.8411 129.317 48.1011 124.935C49.0376 121.68 50.7354 118.703 53.8189 118.216C61.0517 117.074 61.0517 112.887 65.6198 117.455C65.9967 117.832 66.3774 118.193 66.7581 118.544C71.014 122.457 75.3614 124.844 73.6141 126.591Z" fill="#2F2E41"/>
<path d="M30.8969 177.692H27.2798V249.13H30.8969V177.692Z" fill="#3F3D56"/>
<path d="M118.612 177.692H114.995V249.13H118.612V177.692Z" fill="#3F3D56"/>
<path d="M95.5529 147.398H71.5894V171.362H95.5529V147.398Z" fill="#DB7274"/>
<path d="M57.7769 172.878L67.5201 166.682L71.4812 169.071L57.7769 184.818V172.878Z" fill="#FFB6B6"/>
<path d="M44.4534 148.895C44.4534 148.895 37.9819 150.418 41.0273 159.173C44.0727 167.929 53.9703 186.201 57.0157 185.059C60.0611 183.917 60.4418 172.497 60.4418 172.497C60.4418 172.497 60.0611 172.878 58.5384 171.355C57.0157 169.832 57.0157 170.528 57.0157 168.848C57.0157 167.167 55.7702 165.922 55.7702 165.922L54.351 162.98C54.351 162.98 54.351 149.276 48.6408 148.514C42.9307 147.753 44.4534 148.895 44.4534 148.895Z" fill="#E6E6E6"/>
<path d="M74.6883 168.661C77.2155 166.134 77.9989 162.82 76.4379 161.259C74.877 159.698 71.5628 160.481 69.0355 163.009C66.5082 165.536 65.7249 168.85 67.2858 170.411C68.8468 171.972 72.161 171.189 74.6883 168.661Z" fill="#FFB6B6"/>
<path d="M125.847 174.979H16.4282V183.118H125.847V174.979Z" fill="#3F3D56"/>
<path d="M237.015 109.87H220.855C219.574 109.87 218.536 110.909 218.536 112.19V118.855C218.536 120.136 219.574 121.174 220.855 121.174H237.015C238.296 121.174 239.334 120.136 239.334 118.855V112.19C239.334 110.909 238.296 109.87 237.015 109.87Z" fill="#3F3D56"/>
<path d="M270.925 116.535H254.766C253.485 116.535 252.446 117.574 252.446 118.855V118.855C252.446 120.136 253.485 121.174 254.766 121.174H270.925C272.206 121.174 273.245 120.136 273.245 118.855C273.245 117.574 272.206 116.535 270.925 116.535Z" fill="#DB7274"/>
</g>
<defs>
<clipPath id="clip0_510_584">
<rect width="384.788" height="252" fill="white"/>
</clipPath>
</defs>
</svg>
