<svg width="350" height="252" viewBox="0 0 350 252" fill="none" xmlns="http://www.w3.org/2000/svg">
<g clip-path="url(#clip0_510_503)">
<path d="M152.75 222.19L153.281 210.275C158.812 207.322 164.982 205.762 171.253 205.731C162.622 212.779 163.7 226.365 157.848 235.843C156 238.785 153.513 241.274 150.571 243.126C147.629 244.977 144.307 246.144 140.852 246.539L133.629 250.956C132.638 245.438 132.856 239.77 134.269 234.344C135.682 228.919 138.257 223.863 141.815 219.526C143.835 217.113 146.151 214.964 148.709 213.129C150.439 217.684 152.75 222.19 152.75 222.19Z" fill="#F2F2F2"/>
<path d="M198.669 56.4192C198.859 59.1279 199.658 61.7589 201.007 64.1167C203.849 69.1018 208.724 72.7111 213.973 74.8565C220.532 77.5368 227.843 77.6194 234.803 77.0217C241.268 76.4666 247.667 75.1799 254.156 74.9147C259.174 74.7544 264.197 74.874 269.201 75.2732C278.911 75.9614 288.58 77.2384 298.187 78.7865C300.789 79.2006 303.385 79.6456 305.976 80.1214C306.221 80.1429 306.463 80.1879 306.699 80.2556C306.746 80.2748 306.822 80.2598 306.865 80.2869C306.943 80.3361 306.549 80.1622 306.788 80.3596C307.121 80.7088 307.418 81.0907 307.675 81.4996L311.223 86.0596C312.241 87.3673 313.185 88.9561 314.5 89.9868C315.427 90.7022 316.546 91.1274 317.715 91.2087C318.883 91.2901 320.05 91.024 321.068 90.444C322.131 89.7731 322.979 88.8114 323.51 87.6732C324.326 86.1783 325.3 84.7748 326.415 83.4864C330.636 78.5686 336.502 75.5437 341.409 71.4058C343.786 69.4835 345.815 67.1678 347.406 64.5597C348.764 62.1995 349.608 59.5799 349.884 56.8719C350.472 51.3724 348.782 45.764 345.94 41.0855C342.848 36.0592 338.407 31.9996 333.121 29.3679C327.183 26.3464 320.611 24.8747 314.024 24.1412C307.031 23.3626 299.956 23.365 292.929 23.4436C285.042 23.5313 277.169 23.8777 269.311 24.4827C261.441 25.091 253.603 25.9556 245.796 27.0766C238.305 28.1522 230.723 29.2734 223.39 31.1766C216.912 32.8579 210.452 35.486 205.615 40.2477C201.314 44.4815 198.323 50.2752 198.669 56.4192Z" fill="#E6E6E6"/>
<path d="M232.895 34.3147C225.902 35.6032 218.583 37.1808 212.715 41.0019C206.912 44.7812 203.384 50.7228 203.727 56.1389C204.228 64.0501 212.651 69.9661 220.321 71.5162C227.668 73.0002 235.321 71.9952 243.423 70.9305C245.216 70.695 247.071 70.4513 248.905 70.2395C268.85 67.937 306.3 75.029 307.884 75.332L309.531 75.6469L318.249 86.8504C320.233 82.4383 323.683 78.5143 327.347 75.5905C329.024 74.252 330.774 73.0091 332.466 71.8071C336.783 68.7412 340.861 65.8449 343.112 61.8661C348.013 53.201 342.222 41.1186 333.958 35.6943C324.648 29.5833 312.379 28.6247 300.508 28.4989C299.272 28.4858 298.035 28.4792 296.797 28.4792C275.363 28.4825 253.974 30.4357 232.895 34.3147Z" fill="white"/>
<path d="M227.315 43.8907C227.315 43.6505 227.362 43.4126 227.454 43.1906C227.546 42.9685 227.681 42.7667 227.851 42.5967C228.02 42.4267 228.222 42.2917 228.444 42.1995C228.667 42.1074 228.905 42.0598 229.145 42.0596H313.33C313.816 42.0596 314.282 42.2523 314.625 42.5954C314.969 42.9384 315.162 43.4037 315.162 43.8888C315.162 44.374 314.969 44.8393 314.625 45.1823C314.282 45.5254 313.816 45.7181 313.33 45.7181H229.145C228.66 45.7176 228.195 45.5249 227.852 45.1823C227.509 44.8397 227.316 44.3752 227.315 43.8907Z" fill="#E6E6E6"/>
<path d="M227.315 55.1193C227.315 54.879 227.362 54.6411 227.454 54.4191C227.546 54.1971 227.681 53.9953 227.851 53.8252C228.02 53.6552 228.222 53.5202 228.444 53.4281C228.667 53.3359 228.905 53.2883 229.145 53.2881H313.334C313.574 53.2883 313.812 53.3359 314.034 53.4281C314.257 53.5202 314.458 53.6552 314.628 53.8252C314.798 53.9953 314.933 54.1971 315.025 54.4191C315.117 54.6411 315.164 54.8791 315.163 55.1193C315.163 55.3595 315.116 55.5973 315.023 55.8192C314.931 56.041 314.796 56.2425 314.626 56.4122C314.455 56.5819 314.253 56.7164 314.031 56.8081C313.809 56.8998 313.57 56.9469 313.33 56.9466H229.145C228.66 56.9461 228.195 56.7535 227.852 56.4109C227.509 56.0683 227.316 55.6038 227.315 55.1193Z" fill="#E6E6E6"/>
<path d="M301.689 66.3473C301.689 66.1071 301.736 65.8692 301.828 65.6471C301.92 65.4251 302.055 65.2233 302.225 65.0532C302.394 64.8832 302.596 64.7483 302.818 64.6561C303.041 64.5639 303.279 64.5164 303.519 64.5161H313.33C313.815 64.5161 314.281 64.7088 314.625 65.0519C314.968 65.395 315.161 65.8602 315.161 66.3454C315.161 66.8305 314.968 67.2958 314.625 67.6389C314.281 67.9819 313.815 68.1747 313.33 68.1747H303.519C303.034 68.1742 302.569 67.9815 302.226 67.6389C301.883 67.2963 301.69 66.8318 301.689 66.3473Z" fill="#E6E6E6"/>
<path d="M117.562 34.9713C116.687 32.9512 115.358 31.159 113.679 29.7332C112 28.3074 110.015 27.2861 107.877 26.7481C103.132 25.5154 96.184 27.3932 92.6167 30.0892C86.0914 35.0209 84.4989 51.9629 88.9821 57.3167C89.8738 57.2809 92.9508 57.2545 93.8533 57.2288L95.1301 54.0019V57.197C102.175 57.032 109.508 57.1353 116.846 57.2422C117.504 53.4516 119.071 38.6176 117.562 34.9713Z" fill="#2F2E41"/>
<path d="M116.366 239.264H122.791L125.848 214.513L116.365 214.514L116.366 239.264Z" fill="#9E616A"/>
<path d="M60.1201 235.274L66.3374 236.892L75.5466 213.712L66.3698 211.324L60.1201 235.274Z" fill="#9E616A"/>
<path d="M95.5279 87.2494L94.0723 91.0296L94.3636 94.8099L122.856 104.666L121.442 88.1217L118.239 84.3411L95.5279 87.2494Z" fill="#FFB6B6"/>
<path d="M107.752 53.2305C113.372 53.2305 117.928 48.6802 117.928 43.0673C117.928 37.4543 113.372 32.9041 107.752 32.9041C102.131 32.9041 97.5752 37.4543 97.5752 43.0673C97.5752 48.6802 102.131 53.2305 107.752 53.2305Z" fill="#9E616A"/>
<path d="M114.744 29.833C112.789 28.6425 110.549 27.9985 108.259 27.9684C105.969 27.9382 103.713 28.523 101.727 29.6617C99.7411 30.8003 98.0978 32.4508 96.969 34.4408C95.8403 36.4308 95.2676 38.6871 95.3109 40.9738C100.858 42.3897 106.77 42.982 113.034 41.3148L114.466 37.8147L115.31 41.3174C117.227 42.6637 119.077 42.6613 120.86 41.3101C120.935 39.0299 120.41 36.7698 119.337 34.7557C118.264 32.7417 116.68 31.0442 114.744 29.833Z" fill="#2F2E41"/>
<path d="M114.772 236.099L124.929 235.493V239.839L134.586 246.5C135.063 246.829 135.422 247.301 135.611 247.848C135.8 248.396 135.809 248.989 135.636 249.542C135.464 250.094 135.119 250.577 134.652 250.92C134.185 251.263 133.621 251.448 133.041 251.448H120.949L118.865 247.149L118.051 251.448H113.492L114.772 236.099Z" fill="#2F2E41"/>
<path d="M58.8143 231.663L68.7957 233.636L67.6981 237.841L75.3601 246.719C75.7386 247.157 75.9668 247.705 76.0115 248.282C76.0562 248.859 75.915 249.436 75.6085 249.927C75.302 250.418 74.8463 250.799 74.3079 251.013C73.7695 251.227 73.1765 251.264 72.6156 251.118L60.9144 248.072L59.9833 243.387L58.1101 247.342L53.6982 246.194L58.8143 231.663Z" fill="#2F2E41"/>
<path d="M60.9084 219.709L79.7421 181.051L85.6543 133.999C81.5779 126.439 89.1484 111.054 89.1484 111.054V104.595L118.474 110.12C124.473 126.459 127.381 143.767 127.053 161.166L125.871 223.711H126.242C126.857 223.711 127.447 223.955 127.882 224.39C128.317 224.824 128.561 225.413 128.561 226.027C128.561 226.642 128.317 227.231 127.882 227.665C127.447 228.1 126.857 228.344 126.242 228.344H114.645C114.03 228.344 113.44 228.1 113.005 227.665C112.57 227.231 112.325 226.642 112.325 226.027C112.325 225.413 112.57 224.824 113.005 224.39C113.44 223.955 114.03 223.711 114.645 223.711H114.944L106.619 144.143L96.9388 183.408L73.546 219.561C74.1427 219.607 74.6982 219.882 75.0957 220.329C75.4933 220.776 75.7019 221.359 75.6779 221.957C75.6539 222.554 75.3991 223.119 74.9669 223.532C74.5348 223.946 73.9589 224.176 73.3604 224.174H61.7637C61.2243 224.175 60.7017 223.988 60.2858 223.645C59.8699 223.302 59.5869 222.824 59.4856 222.295C59.3843 221.766 59.4709 221.218 59.7306 220.746C59.9904 220.274 60.4069 219.907 60.9084 219.709Z" fill="#2F2E41"/>
<path d="M86.4972 115.014C86.5936 114.636 86.8073 114.299 87.1077 114.049C87.4081 113.8 87.7798 113.652 88.1695 113.627C88.5561 109.213 91.1102 80.9074 91.2073 80.077L91.2111 80.0419L91.9507 64.2642C91.9775 63.6912 92.2148 63.1482 92.6172 62.7388C93.0196 62.3295 93.5588 62.0825 94.132 62.0451L98.0382 61.7901C98.0918 61.7883 98.1425 61.7657 98.1798 61.7273C98.2171 61.6888 98.2379 61.6373 98.2379 61.5838C98.2379 61.153 98.3229 60.7264 98.4879 60.3284C98.653 59.9304 98.895 59.5687 99.2 59.2641C99.505 58.9595 99.8671 58.7178 100.266 58.5529C100.664 58.3881 101.091 58.3032 101.523 58.3032H113.088C113.837 58.3035 114.56 58.5769 115.121 59.0719C115.683 59.5669 116.044 60.2497 116.138 60.9919C116.143 61.043 116.167 61.0903 116.206 61.1243C116.244 61.1584 116.294 61.1766 116.346 61.1754L116.347 61.1754C117.661 61.1484 118.941 61.5927 119.955 62.4277C120.97 63.2628 121.65 64.4332 121.874 65.7266C123.455 74.9136 126.624 95.7645 125.057 107.356C124.512 111.392 124.76 117.461 124.966 120.837C124.986 121.163 124.942 121.491 124.836 121.8C124.73 122.109 124.563 122.394 124.346 122.639C124.808 122.772 125.199 123.078 125.439 123.494C125.678 123.909 125.746 124.401 125.63 124.866C125.509 125.343 125.204 125.752 124.782 126.004C124.359 126.256 123.854 126.33 123.377 126.21L87.8429 117.264C87.3657 117.144 86.9558 116.84 86.7035 116.418C86.4511 115.996 86.3769 115.491 86.4972 115.014Z" fill="#3F3D56"/>
<path d="M194.163 252H0.552318C0.405833 252 0.26535 251.942 0.16177 251.838C0.0581896 251.735 0 251.595 0 251.448C0 251.302 0.0581896 251.162 0.16177 251.058C0.26535 250.955 0.405833 250.897 0.552318 250.897H194.163C194.31 250.897 194.45 250.955 194.554 251.058C194.657 251.162 194.715 251.302 194.715 251.448C194.715 251.595 194.657 251.735 194.554 251.838C194.45 251.942 194.31 252 194.163 252Z" fill="#CACACA"/>
<path d="M88.1351 141.632C88.6019 141.164 88.9602 140.599 89.1847 139.977C89.4092 139.355 89.4944 138.692 89.4344 138.033C89.3743 137.375 89.1705 136.738 88.8372 136.167C88.504 135.596 88.0494 135.104 87.5055 134.728L94.714 98.9702L86.7535 101.523L80.9834 136.109C80.4104 137.064 80.2078 138.195 80.4142 139.289C80.6205 140.382 81.2213 141.362 82.1028 142.043C82.9844 142.724 84.0853 143.058 85.1971 142.983C86.3089 142.907 87.3542 142.426 88.1351 141.632Z" fill="#9E616A"/>
<path d="M98.7788 65.9787L93.8396 62.2553C93.8396 62.2553 89.4826 61.9471 88.7109 69.7943C87.9392 77.6415 86.3547 92.9343 86.3547 92.9343L78.7969 127.893L89.259 130.187L97.354 92.4597L102.21 81.2562L98.7788 65.9787Z" fill="#3F3D56"/>
<path d="M162.928 76.1011C162.311 75.8606 161.65 75.7581 160.989 75.8007C160.329 75.8433 159.685 76.03 159.105 76.3477C158.525 76.6653 158.021 77.1062 157.63 77.6393C157.238 78.1724 156.969 78.7847 156.84 79.4331L121.133 87.1022L126.654 93.3731L160.711 84.8541C161.816 84.998 162.935 84.732 163.857 84.1066C164.779 83.4812 165.439 82.5399 165.712 81.461C165.986 80.3821 165.853 79.2405 165.34 78.2527C164.827 77.2648 163.968 76.4993 162.928 76.1011Z" fill="#9E616A"/>
<path d="M115.522 95.4646C114.381 94.3636 113.523 93.0039 113.021 91.501L106.501 71.9227C106.025 70.4925 105.95 68.9592 106.286 67.4898C106.621 66.0203 107.354 64.6708 108.404 63.5881C109.454 62.5055 110.781 61.7311 112.241 61.3492C113.701 60.9674 115.237 60.9926 116.684 61.4223C118.317 61.9095 119.76 62.8892 120.814 64.2271C121.868 65.565 122.483 67.1956 122.573 68.8957L123.371 84.3026L149.719 80.4494L156.568 86.7366L156.198 86.8625C154.743 87.3575 121.441 98.6315 115.928 95.7498C115.78 95.6745 115.643 95.5785 115.522 95.4646Z" fill="#3F3D56"/>
<path d="M163.971 63.6316C163.925 63.6316 163.879 63.6307 163.832 63.6289C163.291 63.6093 162.762 63.4593 162.291 63.1918C161.82 62.9243 161.421 62.5471 161.127 62.0923C158.927 58.8089 156.228 55.8886 153.126 53.4369C151.248 51.9381 149.286 50.5444 147.389 49.1965C142.494 45.7205 137.884 42.4466 135.325 37.923C129.745 28.059 136.316 14.32 145.703 8.15844C156.231 1.24795 170.079 0.16399 183.476 0.0219352C184.868 0.00723121 186.261 -7.66049e-05 187.655 6.05423e-07C211.793 0.00924384 235.881 2.20883 259.62 6.57165C267.514 8.02613 275.777 9.80792 282.417 14.132C289.018 18.4305 293.03 25.1996 292.638 31.3777C292.067 40.3966 282.494 47.1356 273.776 48.8975C265.467 50.5754 256.836 49.4415 247.698 48.2406C245.68 47.9757 243.594 47.7015 241.532 47.4633C219.114 44.8756 177.001 52.8517 175.22 53.1926L173.452 53.5305L166.594 62.3447C166.285 62.7465 165.888 63.0717 165.433 63.2949C164.978 63.5181 164.478 63.6334 163.971 63.6316Z" fill="#DB7274"/>
<path d="M263.798 19.6344H169.047C168.501 19.6335 167.977 19.4163 167.591 19.0302C167.205 18.6442 166.988 18.121 166.988 17.5755C166.988 17.03 167.205 16.5067 167.591 16.1207C167.977 15.7347 168.501 15.5174 169.047 15.5166H263.798C264.344 15.5174 264.868 15.7347 265.254 16.1207C265.64 16.5067 265.856 17.03 265.856 17.5755C265.856 18.121 265.64 18.6442 265.254 19.0302C264.868 19.4163 264.344 19.6335 263.798 19.6344Z" fill="white"/>
<path d="M263.798 32.2718H169.047C168.776 32.2724 168.508 32.2196 168.257 32.1165C168.007 32.0135 167.779 31.8621 167.587 31.6711C167.395 31.4801 167.243 31.2532 167.139 31.0033C167.035 30.7535 166.981 30.4856 166.981 30.2151C166.981 29.9445 167.034 29.6766 167.137 29.4265C167.241 29.1765 167.393 28.9492 167.584 28.7578C167.776 28.5664 168.003 28.4146 168.253 28.311C168.503 28.2074 168.772 28.154 169.043 28.1541H263.798C264.344 28.1549 264.868 28.3721 265.254 28.7582C265.64 29.1442 265.857 29.6674 265.857 30.2129C265.857 30.7584 265.64 31.2816 265.254 31.6677C264.868 32.0537 264.344 32.271 263.798 32.2718Z" fill="white"/>
<path d="M180.089 44.9092H169.047C168.5 44.9092 167.976 44.6923 167.589 44.3062C167.203 43.9201 166.985 43.3964 166.985 42.8504C166.985 42.3043 167.203 41.7806 167.589 41.3945C167.976 41.0084 168.5 40.7915 169.047 40.7915H180.089C180.636 40.7915 181.16 41.0084 181.547 41.3945C181.933 41.7806 182.15 42.3043 182.15 42.8504C182.15 43.3964 181.933 43.9201 181.547 44.3062C181.16 44.6923 180.636 44.9092 180.089 44.9092Z" fill="white"/>
</g>
<defs>
<clipPath id="clip0_510_503">
<rect width="350" height="252" fill="white"/>
</clipPath>
</defs>
</svg>
