<svg width="341" height="252" viewBox="0 0 341 252" fill="none" xmlns="http://www.w3.org/2000/svg">
<g clip-path="url(#clip0_510_529)">
<path d="M241.969 184.827H58.3932C56.7575 184.825 55.1894 184.175 54.0328 183.018C52.8761 181.862 52.2255 180.293 52.2236 178.658V29.1796C52.2255 27.5439 52.8761 25.9757 54.0328 24.8191C55.1894 23.6625 56.7575 23.0119 58.3932 23.01H241.969C243.604 23.0119 245.173 23.6625 246.329 24.8191C247.486 25.9757 248.136 27.5439 248.138 29.1796V178.658C248.136 180.293 247.486 181.862 246.329 183.018C245.173 184.175 243.604 184.825 241.969 184.827Z" fill="#E6E6E6"/>
<path d="M62.5556 27.4014C60.98 27.4032 59.4695 28.0299 58.3554 29.1441C57.2412 30.2582 56.6146 31.7688 56.6128 33.3444V174.496C56.6147 176.072 57.2414 177.583 58.3555 178.697C59.4696 179.811 60.9801 180.437 62.5556 180.439H188.206C202.932 180.422 217.05 174.565 227.463 164.152C237.876 153.739 243.733 139.621 243.75 124.895V33.3444C243.748 31.7688 243.122 30.2582 242.008 29.1441C240.893 28.0299 239.383 27.4032 237.807 27.4014L62.5556 27.4014Z" fill="white"/>
<path d="M208.493 90.8838H175.207C174.513 90.883 173.847 90.6069 173.356 90.116C172.865 89.6251 172.589 88.9595 172.588 88.2652V71.6979C172.589 71.0036 172.865 70.338 173.356 69.8471C173.847 69.3562 174.513 69.0801 175.207 69.0793H208.493C209.188 69.0801 209.853 69.3562 210.344 69.8471C210.835 70.338 211.111 71.0036 211.112 71.6979C213.172 77.5607 213.464 83.1315 211.112 88.2653C211.111 88.9595 210.835 89.6251 210.344 90.116C209.853 90.6069 209.188 90.883 208.493 90.8838Z" fill="#E6E6E6"/>
<path d="M204.55 89.2827H176.27C175.68 89.282 175.114 89.0474 174.697 88.6303C174.28 88.2133 174.046 87.6478 174.045 87.058V72.9823C174.046 72.3924 174.28 71.827 174.697 71.4099C175.114 70.9928 175.68 70.7582 176.27 70.7576H204.55C205.14 70.7582 205.705 70.9928 206.122 71.4099C206.539 71.827 206.774 72.3924 206.775 72.9823C208.683 77.9952 208.99 82.7387 206.775 87.058C206.774 87.6478 206.539 88.2133 206.122 88.6303C205.705 89.0474 205.14 89.282 204.55 89.2827Z" fill="white"/>
<path d="M203.025 99.5623H180.602C179.942 99.5632 179.309 99.3022 178.842 98.8365C178.375 98.3708 178.112 97.7387 178.11 97.0791C178.109 96.4195 178.37 95.7864 178.835 95.319C179.301 94.8516 179.933 94.5882 180.592 94.5867H203.025C203.684 94.5879 204.316 94.8506 204.781 95.317C205.247 95.7834 205.508 96.4155 205.508 97.0745C205.508 97.7334 205.247 98.3655 204.781 98.8319C204.316 99.2983 203.684 99.561 203.025 99.5623Z" fill="#E6E6E6"/>
<path d="M187.948 74.5583C187.69 74.5592 187.443 74.6622 187.261 74.8447C187.079 75.0273 186.976 75.2745 186.976 75.5325V86.0776C186.976 86.2479 187.02 86.4152 187.105 86.5628C187.19 86.7104 187.312 86.8331 187.46 86.9187C187.607 87.0042 187.774 87.0496 187.944 87.0503C188.114 87.0509 188.282 87.0069 188.43 86.9225L197.737 81.6154C197.887 81.5303 198.011 81.407 198.098 81.258C198.184 81.1091 198.229 80.94 198.229 80.7678C198.228 80.5957 198.182 80.4268 198.095 80.2784C198.008 80.1299 197.883 80.0073 197.733 79.923L188.426 74.6846C188.28 74.6021 188.116 74.5586 187.948 74.5583Z" fill="#E6E6E6"/>
<path d="M323.74 231.824C323.227 231.172 322.53 230.688 321.739 230.435C320.948 230.182 320.099 230.172 319.302 230.406L319.128 230.458L317.565 236.559C317.331 235.65 316.83 233.597 316.514 231.588L316.487 231.422L316.332 231.49C314.698 232.212 313.162 233.137 311.761 234.245C309.277 236.237 307.258 238.745 305.842 241.597C304.426 244.448 303.649 247.573 303.563 250.755L303.56 250.872L303.557 250.946L303.764 250.872L308.205 249.285C310.171 249.458 312.151 249.19 314 248.501C315.849 247.811 317.521 246.717 318.894 245.299C320.688 243.407 321.919 240.973 323.109 238.618C323.457 237.931 323.814 237.224 324.179 236.543C324.586 235.803 324.761 234.957 324.683 234.116C324.605 233.275 324.277 232.477 323.74 231.824Z" fill="#F2F2F2"/>
<path d="M210.339 76.228C210.428 76.6899 210.617 77.1267 210.893 77.5075C211.169 77.8883 211.526 78.2039 211.937 78.4321C212.348 78.6603 212.805 78.7956 213.274 78.8284C213.743 78.8611 214.214 78.7906 214.653 78.6217L227.925 94.0608L229.605 88.3614L216.447 74.2363C216.115 73.5175 215.53 72.9456 214.804 72.629C214.078 72.3125 213.261 72.2732 212.508 72.5187C211.755 72.7643 211.118 73.2775 210.718 73.9611C210.319 74.6448 210.183 75.4514 210.339 76.228Z" fill="#FFB8B8"/>
<path d="M263.826 247.181H259.434L257.345 230.24H263.827L263.826 247.181Z" fill="#FFB6B6"/>
<path d="M263.709 245.747L259.02 243.839L258.886 243.784L256.296 245.747C254.835 245.747 253.433 246.328 252.399 247.361C251.365 248.395 250.784 249.797 250.784 251.259V251.438H264.945V245.747H263.709Z" fill="#2F2E41"/>
<path d="M295.158 247.181H290.766L288.676 230.24H295.159L295.158 247.181Z" fill="#FFB6B6"/>
<path d="M295.041 245.747L290.351 243.839L290.217 243.784L287.628 245.747C286.166 245.747 284.764 246.328 283.73 247.361C282.697 248.395 282.116 249.797 282.116 251.259V251.438H296.277V245.747H295.041Z" fill="#2F2E41"/>
<path d="M284.792 146.018C284.792 146.018 290.301 151.749 290.301 156.458C290.301 161.167 288.924 167.633 290.301 169.048C291.678 170.463 293.4 172.185 291.334 174.25C289.268 176.316 288.235 177.349 289.612 178.726C290.989 180.104 290.301 204.205 290.301 204.205L297.531 236.569H288.422L276.873 204.205L273.774 177.349L263.753 203.172L264.859 236.847L255.336 236.569L251.395 200.762C251.395 200.762 257.248 166.7 256.215 165.827C255.182 164.954 256.215 163.192 256.215 163.192L258.969 150.149L284.792 146.018Z" fill="#2F2E41"/>
<path d="M274.006 105.383C274.006 105.383 275.88 98.0017 267.25 95.8854C258.62 93.7692 233.952 91.0503 233.952 91.0503L221.485 77.8218L217.261 83.9565L231.237 101.323L264.35 108.125L274.006 105.383Z" fill="#3F3D56"/>
<path d="M219.314 83.5044C219.701 83.0028 220.004 82.4416 220.211 81.8427L221.999 77.4497L221.535 77.4303C220.892 77.3095 220.232 77.3257 219.596 77.478C218.961 77.6302 218.365 77.9151 217.847 78.3138C217.329 78.7126 216.902 79.2162 216.592 79.7918C216.283 80.3673 216.099 81.0017 216.051 81.6535C215.993 82.2173 216.094 82.7861 216.343 83.2951C216.471 83.5474 216.656 83.766 216.883 83.9331C217.111 84.1001 217.375 84.2109 217.654 84.2562C217.971 84.2731 218.287 84.2137 218.576 84.0828C218.865 83.952 219.118 83.7536 219.314 83.5044Z" fill="#E6E6E6"/>
<path d="M257.211 151.908L256.178 159.396C256.178 159.396 258.244 161.614 259.277 161.337C260.31 161.06 264.097 159.445 264.097 159.445C264.097 159.445 268.573 161.892 270.983 162.169C273.393 162.446 286.133 160.782 286.477 159.95C286.821 159.118 290.823 155.862 290.823 155.862L289.231 146.362L257.211 151.908Z" fill="#E6E6E6"/>
<path d="M290.756 125.714C290.756 125.714 289.882 132.934 290.57 133.598C291.259 134.26 289.882 138.443 288.505 141.197C287.127 143.952 289.538 144.296 289.538 146.362C289.538 148.428 290.57 156.002 290.57 156.002C290.57 156.002 279.897 156.691 278.176 154.969C276.454 153.248 273.7 154.625 269.912 158.412C266.125 162.2 257.9 159.101 256.178 157.379C254.457 155.658 257.517 149.461 258.55 148.259C259.583 147.057 257.555 148.448 256.522 144.64C255.489 140.832 257.517 141.197 259.239 139.476C260.96 137.754 259.239 134.655 257.862 131.557C256.484 128.458 257.517 105.39 257.517 99.8809C257.517 94.372 265.092 93.6834 265.092 93.6834L268.091 89.9133L270.294 87.1417L274.612 86.9695L274.726 86.9661L278.902 86.7974L280.93 89.1593L285.406 94.372L290.57 95.4049C294.702 96.7822 293.669 105.39 293.669 105.39L290.756 125.714Z" fill="#3F3D56"/>
<path d="M274.399 85.476C279.287 85.476 283.25 81.5135 283.25 76.6256C283.25 71.7376 279.287 67.7751 274.399 67.7751C269.511 67.7751 265.549 71.7376 265.549 76.6256C265.549 81.5135 269.511 85.476 274.399 85.476Z" fill="#FFB6B6"/>
<path d="M284.661 73.6484C282.227 72.1555 282.539 68.252 280.193 66.889C279.027 66.217 277.716 65.8365 276.372 65.7801C275.028 65.7236 273.69 65.9928 272.472 66.5647C270.82 65.8579 268.84 66.4219 267.519 67.6982C266.197 68.9745 265.482 70.8572 265.271 72.7507C265.118 74.6532 265.255 76.5677 265.676 78.4292C265.807 77.6813 265.938 76.9334 266.07 76.1855L273.047 74.6605C272.429 75.2155 271.812 75.7704 271.194 76.3254C274.354 77.0447 277.669 76.5262 280.459 74.8765C283.496 76.2381 282.946 79.2961 280.279 83.3545C281.312 85.076 287.435 75.3494 284.661 73.6484Z" fill="#2F2E41"/>
<path d="M280.93 89.1593C280.911 89.1753 280.89 89.1902 280.868 89.204C280.139 89.639 279.304 89.8653 278.455 89.8582C277.343 89.9509 276.24 89.6049 275.38 88.8941C274.929 88.4672 273.135 89.3693 271.958 89.8685C270.723 90.3804 269.338 90.3964 268.091 89.9133L270.295 87.1416L273.926 86.3364H274.833L278.902 86.7973L280.93 89.1593Z" fill="#E6E6E6"/>
<path d="M340.356 251.861L217.159 252C217.088 252 217.018 251.987 216.953 251.96C216.887 251.933 216.827 251.894 216.777 251.844C216.726 251.794 216.686 251.735 216.659 251.669C216.631 251.604 216.617 251.534 216.617 251.463C216.616 251.392 216.63 251.322 216.657 251.256C216.684 251.19 216.723 251.131 216.773 251.08C216.823 251.03 216.882 250.99 216.947 250.962C217.013 250.935 217.083 250.921 217.154 250.92H217.159L340.356 250.781C340.498 250.782 340.635 250.839 340.736 250.94C340.836 251.041 340.893 251.178 340.893 251.321C340.893 251.463 340.836 251.6 340.736 251.702C340.635 251.803 340.498 251.86 340.356 251.861Z" fill="#CACACA"/>
<path d="M192.845 70.5832H191.938V5.73535H227.597V6.64204H192.845V70.5832Z" fill="#3F3D56"/>
<path d="M255.329 0H231.302C229.739 0 228.24 0.620921 227.135 1.72616C226.03 2.83141 225.409 4.33043 225.409 5.89348C225.409 7.45653 226.03 8.95557 227.135 10.0608C228.24 11.1661 229.739 11.787 231.302 11.787H255.329C256.892 11.787 258.392 11.1661 259.497 10.0608C260.602 8.95557 261.223 7.45653 261.223 5.89348C261.223 4.33043 260.602 2.83141 259.497 1.72616C258.392 0.620921 256.892 0 255.329 0Z" fill="#DB7274"/>
<path d="M191.866 76.5158C194.857 76.5158 197.281 74.0911 197.281 71.1002C197.281 68.1092 194.857 65.6846 191.866 65.6846C188.875 65.6846 186.45 68.1092 186.45 71.1002C186.45 74.0911 188.875 76.5158 191.866 76.5158Z" fill="#DB7274"/>
<path d="M126.606 91.4498L150.364 85.952L157.184 84.3739C158.037 84.1765 157.683 82.8632 156.829 83.0607L133.071 88.5585L126.252 90.1366C125.399 90.334 125.753 91.6472 126.606 91.4498Z" fill="#F2F2F2"/>
<path d="M151.14 77.132L163.858 82.9826C164.292 83.1327 164.699 83.3528 165.062 83.6342C165.413 83.978 165.158 84.3087 164.871 84.6083C164.015 85.4076 163.111 86.1538 162.164 86.8427L156.745 91.248C156.065 91.801 157.025 92.7659 157.699 92.2181L162.418 88.3813L164.778 86.4628C165.446 85.9193 166.26 85.3647 166.529 84.4988C167.093 82.6798 164.866 81.9565 163.628 81.3871L158.089 78.8392L151.832 75.9611C151.044 75.5983 150.345 76.7665 151.14 77.132Z" fill="#F2F2F2"/>
<path d="M326.654 121.67C324.388 120.134 321.635 119.563 318.945 119.37C315.887 119.203 312.821 119.207 309.764 119.381C306.587 119.506 303.417 119.736 300.254 120.07C297.095 120.404 293.949 120.842 290.817 121.384C288.012 121.821 285.237 122.428 282.507 123.203C279.922 123.919 277.488 125.094 275.32 126.674C273.418 128.104 271.955 130.04 271.097 132.261C270.256 134.344 270.112 136.643 270.689 138.814C270.997 139.869 271.523 140.847 272.234 141.684C273.056 142.603 274.03 143.374 275.112 143.963C277.36 145.247 279.907 146.018 281.94 147.661C282.476 148.091 282.964 148.577 283.397 149.111C283.691 149.524 284.098 149.843 284.568 150.032C285.014 150.188 285.496 150.208 285.953 150.09C286.41 149.972 286.823 149.722 287.138 149.37C287.545 148.813 287.885 148.209 288.149 147.572L289.222 145.503C289.293 145.322 289.383 145.149 289.49 144.986C289.57 144.89 289.426 144.988 289.454 144.962C289.469 144.949 289.5 144.949 289.517 144.938C289.606 144.894 289.699 144.858 289.794 144.832C290.786 144.454 291.783 144.087 292.784 143.733C296.478 142.416 300.217 141.202 304.015 140.219C305.969 139.695 307.951 139.28 309.952 138.977C312.543 138.608 315.174 138.651 317.777 138.399C320.579 138.127 323.471 137.56 325.874 136.017C327.861 134.809 329.392 132.977 330.227 130.806C330.589 129.772 330.713 128.67 330.59 127.581C330.278 125.117 328.668 123.036 326.654 121.67Z" fill="#E6E6E6"/>
<path d="M322.016 123.055C319.969 121.666 317.481 121.151 315.05 120.976C312.286 120.825 309.517 120.829 306.753 120.985C303.883 121.099 301.018 121.307 298.16 121.608C295.305 121.911 292.462 122.306 289.632 122.796C287.097 123.191 284.589 123.74 282.122 124.44C279.786 125.086 277.586 126.149 275.628 127.576C273.908 128.869 272.586 130.618 271.812 132.625C271.051 134.507 270.922 136.585 271.443 138.547C271.721 139.5 272.196 140.384 272.839 141.141C273.582 141.971 274.461 142.668 275.44 143.2C277.471 144.36 279.772 145.057 281.609 146.542C282.094 146.93 282.536 147.369 282.927 147.852C283.192 148.225 283.56 148.514 283.985 148.684C284.388 148.825 284.823 148.843 285.236 148.737C285.65 148.63 286.022 148.404 286.307 148.086C286.675 147.583 286.982 147.037 287.221 146.461L288.19 144.591C288.255 144.428 288.336 144.271 288.432 144.124C288.505 144.037 288.375 144.126 288.4 144.103C288.414 144.09 288.442 144.091 288.457 144.081C288.537 144.041 288.621 144.009 288.707 143.985C289.604 143.643 290.504 143.312 291.409 142.992C294.747 141.802 298.126 140.705 301.558 139.817C303.324 139.343 305.116 138.968 306.924 138.694C309.265 138.361 311.642 138.4 313.994 138.172C316.527 137.926 319.14 137.414 321.312 136.019C323.108 134.928 324.491 133.272 325.246 131.311C325.573 130.376 325.685 129.38 325.574 128.396C325.292 126.169 323.837 124.289 322.016 123.055Z" fill="white"/>
<path d="M317.728 125.561L284.361 131.715C284.266 131.734 284.167 131.733 284.072 131.713C283.977 131.693 283.887 131.655 283.807 131.6C283.726 131.545 283.658 131.475 283.605 131.394C283.551 131.313 283.515 131.222 283.497 131.126C283.479 131.031 283.48 130.933 283.5 130.838C283.52 130.743 283.559 130.653 283.614 130.572C283.669 130.492 283.739 130.424 283.821 130.371C283.902 130.318 283.993 130.282 284.089 130.264L284.093 130.263L317.46 124.109C317.555 124.092 317.653 124.093 317.748 124.113C317.843 124.134 317.933 124.172 318.012 124.227C318.092 124.282 318.16 124.353 318.213 124.434C318.266 124.515 318.302 124.606 318.32 124.701C318.337 124.797 318.336 124.895 318.316 124.99C318.295 125.084 318.257 125.174 318.202 125.254C318.147 125.334 318.077 125.402 317.995 125.455C317.914 125.508 317.823 125.544 317.728 125.561Z" fill="#E6E6E6"/>
<path d="M318.55 130.018L285.183 136.172C285.088 136.19 284.99 136.189 284.894 136.169C284.799 136.15 284.709 136.111 284.629 136.056C284.549 136.002 284.48 135.932 284.427 135.85C284.374 135.769 284.337 135.678 284.319 135.583C284.301 135.487 284.302 135.389 284.323 135.294C284.343 135.199 284.381 135.109 284.436 135.029C284.491 134.949 284.561 134.88 284.643 134.827C284.724 134.775 284.815 134.738 284.911 134.721L284.915 134.72L318.282 128.566C318.377 128.548 318.475 128.549 318.57 128.57C318.665 128.59 318.755 128.629 318.835 128.684C318.914 128.739 318.983 128.809 319.035 128.89C319.088 128.972 319.124 129.062 319.142 129.158C319.159 129.253 319.158 129.351 319.138 129.446C319.118 129.541 319.079 129.631 319.024 129.71C318.969 129.79 318.899 129.858 318.817 129.911C318.736 129.964 318.645 130 318.55 130.018Z" fill="#E6E6E6"/>
<path d="M289.893 139.911L286.005 140.628C285.813 140.663 285.614 140.62 285.454 140.509C285.293 140.398 285.183 140.227 285.148 140.035C285.112 139.843 285.154 139.645 285.265 139.484C285.375 139.323 285.545 139.212 285.737 139.176L289.625 138.459C289.818 138.424 290.016 138.466 290.177 138.578C290.338 138.689 290.448 138.859 290.483 139.051C290.519 139.243 290.477 139.442 290.366 139.603C290.255 139.764 290.085 139.875 289.893 139.911Z" fill="#E6E6E6"/>
<path d="M287.076 158.436C288.781 158.122 289.907 156.486 289.593 154.781C289.279 153.077 287.642 151.951 285.938 152.265C284.234 152.579 283.107 154.215 283.422 155.92C283.736 157.624 285.372 158.751 287.076 158.436Z" fill="#D1D3D4"/>
<path d="M114.398 90.0444H85.8976C84.5745 90.0429 83.3061 89.5166 82.3706 88.5811C81.435 87.6455 80.9088 86.3771 80.9072 85.0541V66.2708C80.9088 64.9478 81.435 63.6794 82.3706 62.7439C83.3061 61.8083 84.5745 61.2821 85.8976 61.2805H114.398C115.721 61.2821 116.989 61.8083 117.925 62.7439C118.86 63.6794 119.386 64.9478 119.388 66.2708V85.0541C119.386 86.3772 118.86 87.6456 117.925 88.5811C116.989 89.5166 115.721 90.0429 114.398 90.0444Z" fill="#E6E6E6"/>
<path d="M111.265 89.0325H86.4613C85.3099 89.0311 84.206 88.5731 83.3917 87.7589C82.5775 86.9447 82.1195 85.8408 82.1182 84.6893V68.3419C82.1195 67.1905 82.5775 66.0866 83.3917 65.2724C84.206 64.4581 85.3099 64.0001 86.4613 63.9988H111.265C112.417 64.0001 113.521 64.4581 114.335 65.2724C115.149 66.0866 115.607 67.1905 115.609 68.3419V84.6893C115.607 85.8408 115.149 86.9447 114.335 87.7589C113.521 88.5731 112.417 89.0311 111.265 89.0325Z" fill="white"/>
<path d="M118.412 106.967H81.8425C81.6166 106.967 81.4 106.876 81.2404 106.716C81.0808 106.556 80.9912 106.34 80.9912 106.114C80.9912 105.888 81.0808 105.671 81.2404 105.511C81.4 105.351 81.6166 105.261 81.8425 105.26H118.412C118.638 105.261 118.854 105.351 119.014 105.511C119.174 105.671 119.263 105.888 119.263 106.114C119.263 106.34 119.174 106.556 119.014 106.716C118.854 106.876 118.638 106.967 118.412 106.967Z" fill="#E6E6E6"/>
<path d="M118.412 102.091H81.8425C81.6166 102.091 81.4 102 81.2404 101.84C81.0808 101.681 80.9912 101.464 80.9912 101.238C80.9912 101.012 81.0808 100.795 81.2404 100.635C81.4 100.475 81.6166 100.385 81.8425 100.385H118.412C118.638 100.385 118.854 100.475 119.014 100.635C119.174 100.795 119.263 101.012 119.263 101.238C119.263 101.464 119.174 101.681 119.014 101.84C118.854 102 118.638 102.091 118.412 102.091Z" fill="#E6E6E6"/>
<path d="M118.412 111.843H81.8425C81.6162 111.843 81.3992 111.753 81.2392 111.593C81.0792 111.433 80.9893 111.216 80.9893 110.99C80.9893 110.763 81.0792 110.546 81.2392 110.386C81.3992 110.226 81.6162 110.136 81.8425 110.136H118.412C118.638 110.136 118.855 110.226 119.015 110.386C119.175 110.546 119.265 110.763 119.265 110.99C119.265 111.216 119.175 111.433 119.015 111.593C118.855 111.753 118.638 111.843 118.412 111.843Z" fill="#E6E6E6"/>
<path d="M118.412 116.719H81.8425C81.6162 116.719 81.3992 116.629 81.2392 116.469C81.0792 116.309 80.9893 116.092 80.9893 115.865C80.9893 115.639 81.0792 115.422 81.2392 115.262C81.3992 115.102 81.6162 115.012 81.8425 115.012H118.412C118.638 115.012 118.855 115.102 119.015 115.262C119.175 115.422 119.265 115.639 119.265 115.865C119.265 116.092 119.175 116.309 119.015 116.469C118.855 116.629 118.638 116.719 118.412 116.719Z" fill="#E6E6E6"/>
<path d="M118.412 121.595H81.8425C81.6162 121.595 81.3992 121.505 81.2392 121.345C81.0792 121.185 80.9893 120.968 80.9893 120.741C80.9893 120.515 81.0792 120.298 81.2392 120.138C81.3992 119.978 81.6162 119.888 81.8425 119.888H118.412C118.638 119.888 118.855 119.978 119.015 120.138C119.175 120.298 119.265 120.515 119.265 120.741C119.265 120.968 119.175 121.185 119.015 121.345C118.855 121.505 118.638 121.595 118.412 121.595Z" fill="#E6E6E6"/>
<path d="M118.412 126.471H81.8425C81.6166 126.47 81.4 126.38 81.2404 126.22C81.0808 126.06 80.9912 125.843 80.9912 125.617C80.9912 125.391 81.0808 125.175 81.2404 125.015C81.4 124.855 81.6166 124.765 81.8425 124.764H118.412C118.638 124.765 118.854 124.855 119.014 125.015C119.174 125.175 119.263 125.391 119.263 125.617C119.263 125.843 119.174 126.06 119.014 126.22C118.854 126.38 118.638 126.47 118.412 126.471Z" fill="#E6E6E6"/>
<path d="M98.2988 115.288H99.2055V150.215H33.626V149.309H98.2988V115.288Z" fill="#3F3D56"/>
<path d="M5.89348 155.951H29.9208C31.4838 155.951 32.9828 155.33 34.0881 154.224C35.1933 153.119 35.8143 151.62 35.8143 150.057C35.8143 148.494 35.1933 146.995 34.0881 145.89C32.9828 144.784 31.4838 144.164 29.9208 144.164H5.89348C4.33043 144.164 2.83141 144.784 1.72616 145.89C0.620921 146.995 0 148.494 0 150.057C0 151.62 0.620921 153.119 1.72616 154.224C2.83141 155.33 4.33043 155.951 5.89348 155.951Z" fill="#DB7274"/>
<path d="M99.3834 117.92C102.374 117.92 104.799 115.495 104.799 112.504C104.799 109.514 102.374 107.089 99.3834 107.089C96.3924 107.089 93.9678 109.514 93.9678 112.504C93.9678 115.495 96.3924 117.92 99.3834 117.92Z" fill="#DB7274"/>
<path d="M127.375 114.009C135.326 115.699 133.304 116.029 141.255 117.719L148.101 119.174C148.958 119.356 149.192 118.016 148.336 117.834C140.385 116.144 142.407 115.815 134.456 114.125L127.609 112.67C126.753 112.488 126.518 113.827 127.375 114.009Z" fill="#F2F2F2"/>
<path d="M145.688 110.055L154.738 120.737C155.067 121.057 155.343 121.428 155.552 121.837C155.725 122.297 155.354 122.488 154.967 122.638C153.854 123.001 152.719 123.294 151.569 123.518L144.796 125.217C143.945 125.43 144.407 126.711 145.249 126.5L151.149 125.02L154.098 124.28C154.934 124.07 155.906 123.912 156.516 123.241C157.797 121.831 156.084 120.234 155.204 119.194L151.263 114.542L146.811 109.287C146.25 108.625 145.123 109.388 145.688 110.055Z" fill="#F2F2F2"/>
<path d="M174.38 156.619C181.335 156.619 186.974 150.981 186.974 144.025C186.974 137.07 181.335 131.431 174.38 131.431C167.425 131.431 161.786 137.07 161.786 144.025C161.786 150.981 167.425 156.619 174.38 156.619Z" fill="#E6E6E6"/>
<path d="M173.152 155.014C178.44 155.014 182.727 150.727 182.727 145.439C182.727 140.152 178.44 135.865 173.152 135.865C167.865 135.865 163.578 140.152 163.578 145.439C163.578 150.727 167.865 155.014 173.152 155.014Z" fill="white"/>
<path d="M171.435 151.994C171.217 151.994 171.003 151.943 170.808 151.846C170.614 151.749 170.444 151.607 170.314 151.433L166.878 146.852C166.768 146.705 166.687 146.538 166.642 146.36C166.596 146.181 166.586 145.996 166.612 145.814C166.638 145.632 166.699 145.456 166.793 145.298C166.886 145.14 167.01 145.001 167.157 144.891C167.305 144.78 167.472 144.7 167.65 144.654C167.828 144.609 168.014 144.598 168.196 144.624C168.378 144.65 168.553 144.712 168.712 144.805C168.87 144.899 169.008 145.023 169.119 145.17L169.12 145.171L171.368 148.168L177.141 139.508C177.243 139.355 177.374 139.223 177.527 139.121C177.68 139.018 177.851 138.947 178.032 138.91C178.212 138.874 178.398 138.874 178.579 138.91C178.759 138.945 178.931 139.016 179.084 139.118C179.238 139.22 179.369 139.352 179.472 139.505C179.574 139.658 179.645 139.83 179.681 140.01C179.717 140.191 179.717 140.377 179.681 140.557C179.646 140.738 179.574 140.91 179.472 141.063L172.6 151.37C172.476 151.556 172.309 151.71 172.113 151.819C171.917 151.927 171.698 151.987 171.474 151.993C171.461 151.994 171.448 151.994 171.435 151.994Z" fill="#E6E6E6"/>
<path d="M291.977 156.999C292.382 156.761 292.731 156.436 292.997 156.049C293.264 155.661 293.442 155.22 293.52 154.756C293.597 154.292 293.572 153.816 293.446 153.363C293.32 152.91 293.096 152.49 292.79 152.133L302.902 134.462L296.969 134.785L288.057 151.908C287.491 152.462 287.147 153.204 287.092 153.994C287.036 154.784 287.273 155.567 287.756 156.195C288.239 156.822 288.935 157.251 289.713 157.399C290.491 157.547 291.297 157.405 291.977 156.999Z" fill="#FFB8B8"/>
<path d="M280.587 95.0607C280.587 95.0607 291.297 91.6177 294.052 99.881C296.806 108.144 306.066 130.524 306.066 130.524L296.118 150.838L291.642 146.018L296.425 131.901L282.653 111.243L280.587 95.0607Z" fill="#3F3D56"/>
<path d="M296.459 148.763C296.136 148.218 295.727 147.728 295.248 147.314L291.831 144.025L291.641 144.449C291.29 145.001 291.061 145.62 290.966 146.267C290.872 146.913 290.916 147.573 291.094 148.201C291.273 148.83 291.582 149.414 292.002 149.915C292.421 150.415 292.942 150.822 293.53 151.107C294.032 151.371 294.598 151.488 295.163 151.444C295.444 151.42 295.716 151.329 295.956 151.18C296.195 151.03 296.396 150.826 296.542 150.583C296.675 150.296 296.737 149.98 296.722 149.663C296.708 149.346 296.617 149.038 296.459 148.763Z" fill="#E6E6E6"/>
<path d="M174.271 160.968H173.364V195.895H204.036V194.989H174.271V160.968Z" fill="#3F3D56"/>
<path d="M237.662 195.737C237.661 194.175 237.04 192.676 235.935 191.572C234.83 190.467 233.331 189.845 231.769 189.844H207.742C206.179 189.844 204.68 190.465 203.574 191.57C202.469 192.675 201.848 194.174 201.848 195.737C201.848 197.3 202.469 198.799 203.574 199.905C204.68 201.01 206.179 201.631 207.742 201.631H231.769C233.331 201.629 234.83 201.008 235.935 199.903C237.04 198.798 237.661 197.3 237.662 195.737Z" fill="#DB7274"/>
<path d="M173.187 163.6C176.178 163.6 178.602 161.176 178.602 158.185C178.602 155.194 176.178 152.769 173.187 152.769C170.196 152.769 167.771 155.194 167.771 158.185C167.771 161.176 170.196 163.6 173.187 163.6Z" fill="#DB7274"/>
</g>
<defs>
<clipPath id="clip0_510_529">
<rect width="340.893" height="252" fill="white"/>
</clipPath>
</defs>
</svg>
