<svg width="100" height="100" viewBox="0 0 100 100" fill="none" xmlns="http://www.w3.org/2000/svg">
<mask id="mask0_550_510" style="mask-type:luminance" maskUnits="userSpaceOnUse" x="0" y="5" width="100" height="89">
<path d="M99.7466 5.85635H0.443359V93.6525H99.7466V5.85635Z" fill="white"/>
</mask>
<g mask="url(#mask0_550_510)">
<path d="M83.053 34.6326C81.5731 34.656 80.7017 34.2632 80.1725 33.2373C79.6686 32.2622 79.9985 31.3871 80.5335 30.5804C80.8147 30.1547 81.1803 29.7919 81.6089 29.5149C83.8829 28.0867 86.1491 26.6376 88.4965 25.3382C89.2738 24.9589 90.1439 24.811 91.003 24.9119C91.4011 24.9573 91.7829 25.0962 92.1166 25.3173C92.4511 25.5383 92.7277 25.8352 92.9257 26.1838C93.1231 26.5323 93.2348 26.9227 93.253 27.3228C93.2705 27.723 93.1939 28.1217 93.0277 28.4864C92.6095 29.4078 91.9465 30.1967 91.1102 30.7671C89.0082 32.0422 86.7835 33.1201 84.5777 34.2167C84.0887 34.4178 83.5764 34.5576 83.053 34.6326Z" fill="#EFDFDF"/>
<path d="M14.0706 37.7107C13.6018 37.4465 12.5398 37.0749 11.7922 36.3682C10.5887 35.2065 9.49631 33.9349 8.52924 32.57C8.01365 31.8754 7.71807 31.0424 7.68066 30.1783C7.69813 28.6013 9.35904 27.4638 11.0395 28.026C12.434 28.4566 13.7296 29.1586 14.8517 30.0918C15.9739 31.0249 16.9005 32.1708 17.5782 33.4634C18.7114 35.6762 17.1498 37.7823 14.0706 37.7107Z" fill="#EFDFDF"/>
<path d="M74.3511 6.08218C76.5862 6.06854 77.931 7.74047 77.4894 9.49724C77.3667 10.0666 77.105 10.5965 76.7258 11.0388C75.2122 12.6021 73.6849 14.1645 72.0381 15.5824C71.2381 16.2703 70.2284 16.7843 69.0141 16.3751C67.6005 15.8987 66.9187 14.736 67.3771 13.3283C67.4953 12.9067 67.6946 12.5119 67.9628 12.1656C69.3842 10.5175 70.7875 8.84514 72.3206 7.30488C72.9511 6.67156 73.8927 6.34855 74.3511 6.08218Z" fill="#EFDFDF"/>
<path d="M34.6467 14.3259C34.5189 15.6173 33.9789 16.5733 32.8141 17.1354C31.7248 17.6605 30.782 17.2999 30.0251 16.5506C28.3811 14.9924 27.1453 13.0538 26.4268 10.9057C25.9473 9.38714 26.3982 8.118 27.4982 7.43567C28.6681 6.71114 29.9399 6.81293 31.0509 8.00243C32.7459 9.81972 34.1677 11.8361 34.6467 14.3259Z" fill="#EFDFDF"/>
<path d="M99.2696 47.9462C99.2365 46.8491 99.0423 45.763 98.6917 44.7229C98.1839 43.3433 97.2683 42.4061 96.1209 42.0912C94.9605 41.7711 93.6813 42.1171 92.5209 43.0586C91.6449 43.7682 90.7871 44.5435 89.9592 45.2923C89.6183 45.5987 89.2774 45.9098 88.9365 46.2119L84.3904 50.2539C80.6806 53.5517 76.969 56.8496 73.2534 60.1471C72.9871 60.37 72.7066 60.575 72.4131 60.7599C72.2943 60.8388 72.1722 60.9176 72.0495 61.0054C71.9664 61.0621 71.8716 61.0992 71.7722 61.1137C71.6729 61.1286 71.5715 61.121 71.4754 61.0907C71.3787 61.0608 71.291 61.0088 71.2177 60.9389C71.1449 60.8691 71.0891 60.783 71.0547 60.6879C70.2274 58.4236 69.4216 56.1702 68.6157 53.926C66.8261 48.9395 64.9722 43.7793 63.0327 38.7869C60.3302 31.8399 57.4312 25.1009 54.7075 18.8516C53.9966 17.3413 53.0308 15.9651 51.8519 14.7832C50.792 13.6751 49.6315 13.592 48.0942 14.5249C46.842 15.278 46.3076 16.583 45.7425 17.9626L45.6901 18.0905C45.1253 19.4569 44.5666 20.8262 44.013 22.1985C42.318 26.359 40.5663 30.6682 38.7051 34.8462C35.8922 41.1654 32.8497 47.5114 29.9724 53.4708C28.996 55.4939 27.9318 57.4382 26.8062 59.4967C26.2948 60.4343 25.7727 61.3886 25.2515 62.3697C25.2094 62.4498 25.1514 62.5201 25.0809 62.5764C25.0104 62.6326 24.929 62.674 24.8419 62.6974C24.7547 62.7209 24.6636 62.726 24.5744 62.7128C24.4852 62.6991 24.3996 62.6676 24.3232 62.6194L22.4748 61.4585C21.3011 60.7271 20.2326 60.0619 19.1684 59.3872C17.6708 58.4415 16.173 57.494 14.6751 56.5449C11.7412 54.6837 8.80409 52.8298 5.86393 50.9831C5.20469 50.5006 4.42332 50.2121 3.60851 50.1512C3.0084 50.1703 2.43568 50.4069 1.99707 50.8169C0.704852 51.8764 0.34132 53.1861 0.888975 54.8231C1.23931 55.8783 1.71238 56.9297 2.16756 57.9501L2.18972 57.9926C2.55753 58.8208 2.96027 59.6569 3.34555 60.4671C4.07263 61.9955 4.83041 63.5784 5.43901 65.1979C5.82881 66.2225 6.2201 67.2487 6.61272 68.2767C9.1222 74.85 11.7147 81.6467 13.4097 88.6448C13.9834 91.0188 15.354 92.3019 17.6004 92.5688C18.218 92.6435 18.8364 92.7221 19.4488 92.8013C21.9688 93.1805 24.5121 93.3844 27.0603 93.4097C32.8497 93.3357 38.7354 93.1208 44.429 92.9149C46.9337 92.8227 49.4371 92.7357 51.9393 92.6526C56.0474 92.5208 60.1554 92.3948 64.2631 92.276L68.98 92.1312C69.3605 92.1221 69.7417 92.1091 70.1274 92.1006C70.543 92.0915 70.9638 92.0786 71.3839 92.0656C72.8423 92.0227 74.3008 91.9643 75.7586 91.9123C79.3391 91.7812 83.0332 91.6448 86.6767 91.6234C88.3586 91.6143 89.5456 91.0266 90.417 89.7792C91.0177 88.8636 91.4742 87.861 91.7703 86.8058L92.243 85.2552C94.1741 78.9318 96.167 72.3889 97.3404 65.7673C97.4547 65.1233 97.5728 64.484 97.6865 63.84C98.6216 58.6669 99.5936 53.3062 99.2696 47.9462ZM84.6728 84.0279C84.6313 84.1435 84.5579 84.2448 84.4612 84.3201C84.3644 84.3954 84.2475 84.4415 84.1261 84.4539C83.6001 84.511 83.0573 84.5766 82.5099 84.6428C81.2573 84.7961 79.9566 84.9539 78.643 85.0104C76.4878 85.1026 74.2988 85.1682 72.1832 85.2234C69.3631 85.3084 66.4462 85.3896 63.5864 85.5474C60.2539 85.7357 56.864 86.0117 53.5882 86.2786C51.7053 86.4324 49.822 86.5857 47.9391 86.7208C45.1888 86.9227 42.8938 87.0844 40.5028 87.1591C34.6124 87.3474 28.6256 87.5 22.8362 87.65L19.9679 87.724H19.9019C19.6355 87.7182 19.3702 87.687 19.1096 87.6318C19.0218 87.6143 18.9344 87.5967 18.8509 87.5889C18.7266 87.5721 18.6098 87.5195 18.5143 87.4383C18.4189 87.3565 18.3488 87.2493 18.3122 87.1292L10.7055 62.3859C10.6651 62.2584 10.6649 62.1212 10.705 61.9934C10.7451 61.8655 10.8235 61.7534 10.9296 61.6716C11.0356 61.5897 11.1643 61.5424 11.2982 61.5365C11.4319 61.53 11.5644 61.565 11.6777 61.6366L12.663 62.2456C13.3155 62.6484 13.9156 63.0162 14.5067 63.393C15.3474 63.9274 16.1883 64.4589 17.0293 64.9869C19.1138 66.3051 21.273 67.663 23.3532 69.0728C24.6842 69.9751 25.8494 70.3212 26.8084 70.1021C27.746 69.889 28.5732 69.1475 29.331 67.8382L30.0129 66.6687C31.3004 64.4614 32.6319 62.1753 33.7395 59.8496C37.4048 52.1244 41.0794 44.2417 44.6314 36.6171C46.0327 33.6084 47.437 30.5998 48.8443 27.5912C48.9623 27.3354 49.0851 27.0873 49.2603 26.7417L49.5974 26.0628C49.6515 25.9488 49.7384 25.8535 49.8467 25.7888C49.9554 25.7241 50.0803 25.693 50.2064 25.6993C50.3321 25.7024 50.4545 25.7415 50.5584 25.8122C50.6625 25.8829 50.7438 25.982 50.7929 26.0977C51.3098 27.3154 51.831 28.4934 52.3434 29.6496C53.4557 32.1641 54.5067 34.5369 55.4047 37.0024C57.4585 42.6563 59.4684 48.4243 61.4174 54.0073C62.534 57.2047 63.6554 60.4032 64.781 63.6026C65.3371 65.2341 65.9865 66.8323 66.7254 68.3892C66.9683 68.9573 67.341 69.4602 67.8144 69.8574C68.2878 70.2547 68.8475 70.5347 69.4495 70.6753C70.6274 70.9078 71.8709 70.5002 72.9573 69.5323C74.6079 68.0611 76.2508 66.5762 77.893 65.096C79.3339 63.7953 80.7741 62.4975 82.2151 61.2028C84.0501 59.5653 85.891 57.9313 87.7371 56.3015L90.2092 54.116C90.3008 54.0354 90.4118 53.9813 90.5313 53.9601C90.6514 53.9383 90.7748 53.9502 90.8884 53.9937L91.3436 54.1731C91.4826 54.2276 91.6001 54.3278 91.6748 54.4578C91.7495 54.5878 91.778 54.7391 91.7553 54.887C90.4099 63.471 88.5183 73.6487 84.6728 84.0279Z" fill="#EFDFDF"/>
</g>
</svg>
