<svg width="186" height="50" viewBox="0 0 186 50" fill="none" xmlns="http://www.w3.org/2000/svg">
<path d="M5 34L21.5085 43.8158C22.7403 44.5483 24.2698 44.5657 25.518 43.8616L41.0347 35.1086C42.2546 34.4205 43.7454 34.4205 44.9653 35.1086L60.4819 43.8616C61.7302 44.5657 63.2597 44.5483 64.4915 43.8158L78.9827 35.1995C80.2283 34.4589 81.777 34.4499 83.0311 35.1759L97.9959 43.8397C99.2356 44.5574 100.764 44.5574 102.004 43.8397L116.847 35.2465C118.165 34.4833 119.803 34.535 121.07 35.38L135.5 45" stroke="#EFDFDF" stroke-width="6" stroke-linecap="square"/>
<g clip-path="url(#clip0_531_231)">
<path d="M185.514 12.7848L173.218 0.488669C172.571 -0.158495 171.6 -0.158495 170.953 0.488669L146.685 24.7573C146.037 25.4045 146.037 26.3752 146.685 27.0224C147.332 27.6696 148.303 27.6696 148.95 27.0224L172.248 3.72449L182.279 13.7555L158.981 37.0534C158.334 37.7006 158.334 38.6713 158.981 39.3185C159.304 39.6421 159.628 39.8039 160.113 39.8039C160.599 39.8039 160.922 39.6421 161.246 39.3185L185.514 15.0499C186.162 14.4027 186.162 13.432 185.514 12.7848Z" fill="#EFDFDF"/>
<path d="M161.57 37.5388C161.246 36.7298 160.275 36.4062 159.466 36.7298L140.86 45.1429L149.273 26.537C149.597 25.728 149.273 24.7573 148.464 24.4337C147.656 24.1101 146.685 24.4337 146.361 25.2426L136.168 47.7316C135.845 48.3788 136.007 49.0259 136.492 49.5113C136.816 49.8349 137.139 49.9967 137.624 49.9967C137.786 49.9967 138.11 49.9967 138.272 49.8349L160.761 39.642C161.57 39.3185 161.893 38.3477 161.57 37.5388Z" fill="#EFDFDF"/>
<path d="M157.201 28.802C156.392 27.9931 155.098 27.5077 153.965 27.5077C152.671 27.5077 151.538 27.9931 150.73 28.802C150.082 29.4492 150.082 30.4199 150.73 31.0671C151.377 31.7143 152.347 31.7143 152.995 31.0671C153.318 30.9053 153.642 30.7435 153.965 30.7435C154.289 30.7435 154.612 30.7435 154.936 31.0671C155.098 31.3907 155.26 31.7143 155.26 32.0378C155.26 32.3614 155.26 32.685 154.936 33.0086C154.289 33.6557 154.289 34.6265 154.936 35.2737C155.26 35.5972 155.583 35.759 156.069 35.759C156.392 35.759 156.878 35.5972 157.201 35.2737C158.01 34.4647 158.495 33.3322 158.495 32.0378C158.495 30.7435 158.01 29.611 157.201 28.802Z" fill="#EFDFDF"/>
<path d="M153.156 24.7573C151.377 22.9776 148.464 22.9776 146.685 24.7573C146.037 25.4044 146.037 26.3752 146.685 27.0223C147.332 27.6695 148.303 27.6695 148.95 27.0223C149.435 26.537 150.244 26.537 150.729 27.0223C151.215 27.5077 151.215 28.3167 150.729 28.802C150.082 29.4492 150.082 30.4199 150.729 31.0671C151.053 31.3907 151.377 31.5525 151.862 31.5525C152.347 31.5525 152.671 31.3907 153.156 31.2289C154.936 29.4492 154.936 26.537 153.156 24.7573Z" fill="#EFDFDF"/>
<path d="M161.246 33.0086C160.437 32.1996 159.143 31.7142 158.01 31.7142C156.716 31.7142 155.583 32.1996 154.774 33.0086C154.127 33.6557 154.127 34.6265 154.774 35.2736C155.422 35.9208 156.392 35.9208 157.04 35.2736C157.363 35.1118 157.687 34.9501 158.01 34.9501C158.334 34.9501 158.657 34.9501 158.981 35.2736C159.466 35.759 159.466 36.568 158.981 37.0533C158.334 37.7005 158.334 38.6712 158.981 39.3184C159.305 39.642 159.628 39.8038 160.114 39.8038C160.599 39.8038 160.922 39.642 161.246 39.4802C163.026 37.7005 163.026 34.7883 161.246 33.0086Z" fill="#EFDFDF"/>
<path d="M177.425 4.53335C176.778 3.88618 175.807 3.88618 175.16 4.53335L153.642 25.8898C152.994 26.5369 152.994 27.5077 153.642 28.1548C153.965 28.4784 154.289 28.6402 154.774 28.6402C155.26 28.6402 155.745 28.4784 156.068 28.1548L177.425 6.79842C178.072 6.15126 178.072 5.18051 177.425 4.53335Z" fill="#EFDFDF"/>
<path d="M181.47 8.57815C180.823 7.93098 179.852 7.93098 179.205 8.57815L157.849 30.0964C157.201 30.7435 157.201 31.7143 157.849 32.3614C158.172 32.685 158.496 32.8468 158.981 32.8468C159.467 32.8468 159.79 32.685 160.114 32.3614L181.47 10.8432C182.117 10.1961 182.117 9.22531 181.47 8.57815Z" fill="#EFDFDF"/>
<path d="M149.273 42.5542L143.449 36.7298C142.802 36.0826 141.831 36.0826 141.184 36.7298C140.536 37.3769 140.536 38.3477 141.184 38.9948L147.008 44.8193C147.332 45.1429 147.655 45.3047 148.141 45.3047C148.626 45.3047 148.95 45.1429 149.273 44.8193C149.92 44.1721 149.92 43.2014 149.273 42.5542Z" fill="#EFDFDF"/>
</g>
<defs>
<clipPath id="clip0_531_231">
<rect width="50" height="50" fill="white" transform="translate(136)"/>
</clipPath>
</defs>
</svg>
