<svg width="36" height="37" viewBox="0 0 36 37" fill="none" xmlns="http://www.w3.org/2000/svg">
<g clip-path="url(#clip0_426_222)">
<path d="M36 18.1655C36 8.22823 27.9405 0.171387 18 0.171387C8.0595 0.171387 0 8.22823 0 18.1655C0 27.1475 6.582 34.591 15.1875 35.9406V23.3672H10.617V18.1639H15.1875V14.2023C15.1875 9.69324 17.8755 7.20107 21.987 7.20107C23.955 7.20107 26.016 7.55346 26.016 7.55346V11.9815H23.745C21.5085 11.9815 20.811 13.3685 20.811 14.7916V18.1655H25.803L25.005 23.3687H20.811V35.9421C29.418 34.591 36 27.146 36 18.1655Z" fill="#FFF4F4"/>
</g>
<defs>
<clipPath id="clip0_426_222">
<rect width="36" height="35.9881" fill="white" transform="translate(0 0.0615234)"/>
</clipPath>
</defs>
</svg>
