<svg width="36" height="37" viewBox="0 0 36 37" fill="none" xmlns="http://www.w3.org/2000/svg">
<g clip-path="url(#clip0_426_224)">
<path d="M18 0.0615234C13.11 0.0615234 12.4995 0.084016 10.5795 0.169488C8.6625 0.259458 7.3575 0.560859 6.21 1.00621C5.0265 1.46506 4.0215 2.08136 3.021 3.08152C2.0205 4.0817 1.4025 5.08487 0.945 6.26948C0.4995 7.4166 0.1965 8.72117 0.108 10.6375C0.018 12.5569 0 13.1672 0 18.0556C0 22.944 0.0225 23.5542 0.108 25.4736C0.198 27.3886 0.4995 28.6946 0.945 29.8417C1.404 31.0234 2.0205 32.0294 3.021 33.0297C4.0215 34.0284 5.025 34.6476 6.21 35.105C7.359 35.5489 8.664 35.8532 10.5795 35.9417C12.4995 36.0317 13.11 36.0497 18 36.0497C22.89 36.0497 23.5005 36.0272 25.4205 35.9417C27.336 35.8517 28.6425 35.5489 29.79 35.105C30.972 34.6461 31.9785 34.0284 32.979 33.0297C33.978 32.0294 34.5975 31.0278 35.055 29.8417C35.499 28.6946 35.8035 27.3886 35.892 25.4736C35.982 23.5542 36 22.944 36 18.0556C36 13.1672 35.9775 12.5569 35.892 10.6375C35.802 8.72266 35.499 7.4151 35.055 6.26948C34.596 5.08637 33.978 4.0817 32.979 3.08152C31.9785 2.08136 30.9765 1.46356 29.79 1.00621C28.6425 0.560859 27.336 0.257959 25.4205 0.169488C23.5005 0.0795175 22.89 0.0615234 18 0.0615234ZM18 3.30046C22.8045 3.30046 23.3775 3.32444 25.275 3.40692C27.03 3.48939 27.9825 3.7803 28.6155 4.02922C29.4585 4.3546 30.0555 4.74448 30.6885 5.37278C31.317 6.00257 31.707 6.60087 32.0325 7.44359C32.2785 8.07638 32.5725 9.02856 32.652 10.783C32.7375 12.6813 32.757 13.2512 32.757 18.0556C32.757 22.86 32.7345 23.4313 32.646 25.3282C32.5545 27.0826 32.262 28.0348 32.0145 28.6676C31.6785 29.5103 31.296 30.1071 30.666 30.7399C30.0375 31.3682 29.43 31.7581 28.596 32.0834C27.966 32.3294 26.9985 32.6232 25.2435 32.7028C23.3325 32.7882 22.77 32.8077 17.955 32.8077C13.1385 32.8077 12.576 32.7852 10.6665 32.6968C8.91 32.6053 7.9425 32.3129 7.3125 32.0654C6.459 31.7296 5.8725 31.3472 5.244 30.7175C4.6125 30.0891 4.209 29.4818 3.894 28.6481C3.6465 28.0183 3.3555 27.0512 3.264 25.2967C3.1965 23.4074 3.1725 22.824 3.1725 18.0331C3.1725 13.2407 3.1965 12.6559 3.264 10.744C3.3555 8.98958 3.6465 8.0239 3.894 7.39411C4.209 6.53939 4.6125 5.95458 5.244 5.32329C5.8725 4.695 6.459 4.29013 7.3125 3.97673C7.9425 3.72781 8.889 3.43541 10.644 3.34544C12.5565 3.27796 13.119 3.25547 17.9325 3.25547L18 3.30046ZM18 8.81564C12.8925 8.81564 8.757 12.9543 8.757 18.0556C8.757 23.1614 12.897 27.2955 18 27.2955C23.1075 27.2955 27.243 23.1569 27.243 18.0556C27.243 12.9498 23.103 8.81564 18 8.81564ZM18 24.0536C14.685 24.0536 12 21.3695 12 18.0556C12 14.7416 14.685 12.0576 18 12.0576C21.315 12.0576 24 14.7416 24 18.0556C24 21.3695 21.315 24.0536 18 24.0536ZM29.769 8.45126C29.769 9.64336 28.8 10.6105 27.609 10.6105C26.4165 10.6105 25.449 9.64187 25.449 8.45126C25.449 7.26065 26.418 6.29346 27.609 6.29346C28.7985 6.29197 29.769 7.26065 29.769 8.45126Z" fill="#FFF4F4"/>
</g>
<defs>
<clipPath id="clip0_426_224">
<rect width="36" height="35.9881" fill="white" transform="translate(0 0.0615234)"/>
</clipPath>
</defs>
</svg>
