<svg width="222" height="152" viewBox="0 0 222 152" fill="none" xmlns="http://www.w3.org/2000/svg">
<g clip-path="url(#clip0_564_340)">
<path d="M18.682 65.6986C15.4947 65.3437 11.3278 65.1832 7.36465 67.1138C5.37707 68.0839 4.05775 69.5879 3.65211 71.3518C3.26284 73.0435 3.75267 74.8728 5.0316 76.5022C6.40046 78.2545 8.04152 79.7761 9.89212 81.0092C13.9084 83.662 18.2662 85.757 22.8458 87.2386C26.2657 88.337 29.7894 89.0809 33.3614 89.458C36.8238 89.8258 40.9077 90.0133 44.9261 88.6125C46.8674 87.9363 48.2527 86.7829 48.9332 85.2765C49.6196 83.7561 49.567 81.9343 48.7808 80.004C47.6841 77.3102 45.7997 75.0982 43.0198 73.2411C41.9799 72.5452 40.8604 71.9437 39.7781 71.3612C39.4226 71.1697 39.0671 70.9787 38.7131 70.7832C39.4082 70.2106 40.1045 69.6413 40.8019 69.0759C42.5663 67.6395 44.3912 66.1541 46.1237 64.6229C51.3041 60.044 57.7107 53.7018 61.2983 45.2334C65.0792 36.3088 64.3002 28.7986 58.9163 22.2745C55.182 17.7491 50.2595 15.0472 44.2872 14.2467C35.2579 13.0354 28.074 16.2316 22.9351 23.7468C19.8713 28.2281 18.7973 33.4107 18.2049 37.426C17.231 44.0138 17.5635 51.0264 19.2838 60.1643C19.5519 61.5894 19.8754 62.9699 20.2182 64.4311C20.3378 64.9396 20.457 65.4514 20.5755 65.9671L20.231 65.9148C19.6932 65.8323 19.1878 65.7553 18.682 65.6986ZM28.6755 72.2748C28.3975 72.4657 28.1178 72.6574 27.8359 72.8515C24.9549 68.1866 23.8063 63.0385 22.9977 58.161C21.9569 51.8843 21.078 44.4514 22.4529 36.9096C23.6302 30.4553 25.7109 26.0808 29.2013 22.721C33.5373 18.5477 39.9541 17.0958 46.3666 18.8369C46.6806 18.9222 46.9906 19.014 47.2964 19.1124C53.1105 20.9832 57.4248 25.2059 58.9321 30.5582C59.891 33.9663 59.6603 37.5041 58.2077 41.6917C56.5892 46.3541 53.7324 50.7788 49.218 55.6152C44.1227 61.0752 38.1784 65.9999 31.0458 70.6706C30.2503 71.1909 29.4854 71.7171 28.6755 72.2748ZM21.1782 69.062C21.4922 69.1786 21.7551 69.4018 21.9213 69.693C23.0563 72.3302 24.7539 74.6873 26.8952 76.6001C27.8334 77.434 28.9023 77.4516 30.0696 76.652L30.8654 76.1053C31.9442 75.3622 33.06 74.5941 34.188 73.899C34.528 73.675 34.9409 73.5891 35.3418 73.6601C38.0781 74.7923 40.8943 76.172 42.9518 78.5794C43.8117 79.6174 44.5067 80.7815 45.0123 82.0313C45.1338 82.2661 45.2057 82.5235 45.2241 82.7877C45.2428 83.0515 45.2075 83.3164 45.1202 83.5661C44.9946 83.8085 44.8208 84.0228 44.6098 84.1957C44.3986 84.369 44.1546 84.4977 43.8922 84.5739C42.6714 85.0345 41.3973 85.3393 40.0996 85.4803C35.232 86.0012 30.0189 85.3638 23.6954 83.4742C19.1923 81.84 14.8394 80.1426 11.0833 77.3673C9.85427 76.4773 8.74958 75.4271 7.79829 74.2451C7.13586 73.4023 6.8821 72.5849 7.06508 71.8805C7.23729 71.2166 7.80224 70.6676 8.69845 70.2928C10.6293 69.4847 12.6682 68.9645 14.7502 68.7485C16.4107 68.5826 18.1489 68.754 19.83 68.92C20.2417 68.9609 20.6534 69.0013 21.0638 69.0367C21.1027 69.0412 21.141 69.0496 21.1782 69.062Z" fill="#EFDFDF" stroke="#EFDFDF" stroke-width="0.395062"/>
<path d="M49.8659 37.3217C49.8922 37.2401 49.9217 37.1597 49.9499 37.0791C50.0795 36.7266 50.1898 36.3673 50.2799 36.0026C50.619 34.5964 50.5982 33.1276 50.2189 31.7316C49.8399 30.3357 49.1148 29.0579 48.1108 28.0166C47.1315 27.0157 45.9125 26.2821 44.5696 25.8856C43.2267 25.4892 41.8045 25.4433 40.4387 25.752C37.2353 26.417 34.7022 28.4577 33.1141 31.6536C31.0518 35.8033 32.7782 41.069 36.9619 43.3913C37.525 43.7051 38.1174 43.9632 38.7306 44.162C42.4914 45.3721 46.3332 43.9616 48.516 40.3837C48.8708 39.7773 49.1931 39.1524 49.4814 38.5117C49.617 38.2252 49.7519 37.9385 49.8932 37.6555C49.9126 37.6168 49.9239 37.5745 49.9263 37.5312C49.929 37.4881 49.9229 37.4448 49.9084 37.404C49.8981 37.3747 49.8837 37.347 49.8659 37.3217ZM46.37 36.5964L46.3236 36.7191C46.2741 36.8516 46.207 37.0304 46.1337 37.2072C45.3692 39.0473 44.204 40.2956 42.7644 40.8166C41.4841 41.2801 40.0534 41.1295 38.6239 40.3817C37.8869 39.9626 37.2419 39.3992 36.7278 38.7251C36.2136 38.051 35.8407 37.28 35.6313 36.4585C35.4402 35.7098 35.4141 34.9287 35.5548 34.1689C35.6956 33.4092 36 32.6891 36.4466 32.0586C37.6428 30.2961 39.09 28.6871 41.5588 28.8461C42.1559 28.8813 42.7464 28.99 43.3169 29.1698C44.404 29.4911 45.3489 30.1738 45.9954 31.1049C46.9506 32.5306 47.0836 34.481 46.3704 36.5951L46.37 36.5964Z" fill="#EFDFDF" stroke="#EFDFDF" stroke-width="0.395062"/>
</g>
<g clip-path="url(#clip1_564_340)">
<path d="M181.356 66.8622C178.742 68.7197 175.526 71.3743 173.855 75.4536C173.018 77.5008 173.035 79.5014 173.907 81.0875C174.743 82.6089 176.326 83.6476 178.365 84.0117C180.553 84.4076 182.791 84.4502 184.993 84.1381C189.755 83.4431 194.402 82.1046 198.805 80.1608C202.088 78.7033 205.212 76.9121 208.128 74.8151C210.957 72.7841 214.128 70.2048 216.194 66.484C217.192 64.687 217.458 62.904 216.962 61.3271C216.462 59.7356 215.21 58.4113 213.338 57.4947C210.726 56.215 207.847 55.8194 204.537 56.2848C203.298 56.4579 202.062 56.7545 200.867 57.0406C200.474 57.1344 200.081 57.2286 199.687 57.3185C199.824 56.4284 199.965 55.54 200.109 54.6538C200.469 52.4074 200.841 50.084 201.114 47.788C201.931 40.9224 202.488 31.9248 199.526 23.2178C196.405 14.0417 190.823 8.95701 182.462 7.67417C176.663 6.78412 171.191 8.04586 166.202 11.4251C158.659 16.5335 155.427 23.7014 156.597 32.7302C157.295 38.1136 159.944 42.6955 162.176 46.0857C165.835 51.6494 170.753 56.6601 178.12 62.3324C179.269 63.2172 180.43 64.0318 181.659 64.8937C182.086 65.1934 182.516 65.496 182.948 65.8018L182.656 65.9921C182.2 66.2887 181.771 66.5678 181.356 66.8622ZM193.191 65.1147C193.111 65.4422 193.03 65.7716 192.949 66.1041C187.693 64.5418 183.408 61.4656 179.558 58.3649C174.602 54.3748 168.997 49.4144 165.001 42.872C161.582 37.2726 160.222 32.6233 160.589 27.7926C161.045 21.7918 164.866 16.436 170.81 13.4654C171.101 13.3199 171.393 13.182 171.687 13.0518C177.27 10.5764 183.301 10.8544 187.989 13.8441C190.974 15.7484 193.157 18.5415 194.862 22.6331C196.759 27.1894 197.573 32.3928 197.425 39.0071C197.259 46.4734 196.103 54.1056 193.892 62.3395C193.644 63.2575 193.424 64.1593 193.191 65.1147ZM185.458 67.7096C185.77 67.5875 186.115 67.579 186.433 67.6857C189.036 68.8975 191.872 69.5258 194.743 69.5272C195.998 69.5247 196.807 68.8261 197.146 67.4523L197.376 66.5145C197.686 65.2418 198.007 63.9258 198.385 62.6561C198.49 62.2626 198.741 61.9236 199.087 61.7096C201.883 60.7324 204.903 59.8867 208.041 60.3129C209.373 60.5148 210.667 60.9206 211.876 61.5165C212.123 61.6107 212.348 61.7549 212.538 61.9397C212.727 62.1241 212.878 62.3453 212.979 62.5897C213.046 62.8542 213.059 63.1298 213.017 63.3993C212.975 63.6692 212.879 63.9277 212.734 64.1593C212.129 65.3158 211.382 66.3915 210.507 67.3608C207.222 70.9904 202.909 73.9859 196.932 76.7865C192.485 78.5656 188.107 80.1974 183.456 80.6277C181.947 80.782 180.423 80.734 178.927 80.4855C177.871 80.2978 177.138 79.8569 176.805 79.2095C176.492 78.5995 176.548 77.8137 176.967 76.9374C177.869 75.0487 179.044 73.3031 180.454 71.7557C181.582 70.5263 182.993 69.4968 184.358 68.5013C184.692 68.2577 185.026 68.0137 185.356 67.7669C185.388 67.7444 185.422 67.7251 185.458 67.7096Z" fill="#EFDFDF" stroke="#EFDFDF" stroke-width="0.395062"/>
<path d="M185.728 24.9268C185.694 24.8484 185.662 24.7688 185.63 24.6898C185.492 24.3406 185.335 23.999 185.159 23.667C184.476 22.392 183.482 21.31 182.27 20.5209C181.058 19.7319 179.666 19.2613 178.223 19.1529C176.826 19.0581 175.428 19.3224 174.162 19.9208C172.896 20.5192 171.805 21.4318 170.991 22.5715C169.044 25.2007 168.513 28.4098 169.456 31.8517C170.68 36.321 175.474 39.1003 180.142 38.0472C180.771 37.9065 181.385 37.7046 181.975 37.4446C185.587 35.8434 187.514 32.233 186.76 28.1102C186.621 27.4215 186.445 26.7407 186.234 26.0707C186.144 25.7667 186.054 25.4629 185.971 25.1577C185.96 25.1159 185.94 25.0768 185.913 25.0429C185.886 25.0089 185.853 24.9807 185.815 24.9599C185.788 24.9449 185.759 24.9338 185.728 24.9268ZM182.637 26.7133L182.684 26.8358C182.736 26.9676 182.805 27.1457 182.868 27.3264C183.522 29.2083 183.484 30.9155 182.757 32.2628C182.11 33.461 180.943 34.3013 179.378 34.6952C178.549 34.8732 177.693 34.8823 176.861 34.7217C176.028 34.5611 175.236 34.2342 174.533 33.7606C173.892 33.3293 173.353 32.7639 172.952 32.1033C172.551 31.4427 172.299 30.7028 172.212 29.9351C171.931 27.8235 171.939 25.6595 173.887 24.1343C174.356 23.763 174.869 23.4509 175.414 23.2052C176.439 22.7211 177.599 22.6013 178.701 22.8656C180.363 23.2933 181.761 24.6599 182.637 26.7121L182.637 26.7133Z" fill="#EFDFDF" stroke="#EFDFDF" stroke-width="0.395062"/>
</g>
<g clip-path="url(#clip2_564_340)">
<path d="M106.358 129.308C103.538 130.835 100.024 133.08 97.8701 136.926C96.791 138.857 96.5653 140.845 97.2383 142.525C97.8836 144.136 99.3294 145.359 101.309 145.968C103.433 146.626 105.649 146.94 107.872 146.897C112.684 146.785 117.459 146.02 122.065 144.625C125.501 143.576 128.819 142.177 131.968 140.449C135.022 138.776 138.483 136.6 140.985 133.158C142.193 131.495 142.673 129.757 142.373 128.132C142.069 126.492 140.987 125.025 139.24 123.888C136.803 122.301 133.993 121.559 130.65 121.62C129.399 121.641 128.137 121.786 126.916 121.925C126.514 121.971 126.113 122.016 125.711 122.058C125.955 121.191 126.203 120.326 126.453 119.464C127.083 117.278 127.734 115.017 128.284 112.771C129.927 106.055 131.571 97.1912 129.687 88.1893C127.701 78.7024 122.777 72.9783 114.634 70.6909C108.985 69.1041 103.401 69.6929 98.039 72.4422C89.9319 76.598 85.8547 83.3211 85.9208 92.4251C85.9606 97.8534 88.0348 102.723 89.8388 106.359C92.7967 112.325 97.0701 117.895 103.696 124.419C104.729 125.437 105.782 126.386 106.897 127.391C107.285 127.74 107.675 128.092 108.067 128.448L107.754 128.602C107.265 128.841 106.806 129.066 106.358 129.308ZM118.318 129.009C118.198 129.324 118.078 129.641 117.957 129.961C112.93 127.773 109.05 124.2 105.603 120.655C101.168 116.094 96.206 110.49 93.0332 103.511C90.3185 97.5386 89.5321 92.7586 90.4824 88.0081C91.6631 82.1069 96.1053 77.254 102.365 75.0262C102.672 74.9171 102.979 74.8157 103.286 74.7221C109.129 72.9421 115.081 73.9494 119.372 77.4856C122.104 79.7379 123.932 82.7752 125.128 87.0433C126.458 91.796 126.636 97.0598 125.687 103.607C124.616 110.998 122.543 118.434 119.349 126.339C118.993 127.22 118.665 128.089 118.318 129.009ZM110.327 130.647C110.651 130.563 110.995 130.597 111.297 130.741C113.734 132.26 116.473 133.227 119.323 133.577C120.569 133.727 121.457 133.131 121.96 131.809L122.301 130.906C122.764 129.68 123.242 128.413 123.772 127.198C123.923 126.82 124.213 126.514 124.583 126.344C127.477 125.713 130.577 125.24 133.64 126.043C134.938 126.405 136.173 126.965 137.301 127.703C137.535 127.827 137.741 127.997 137.907 128.203C138.072 128.41 138.195 128.647 138.265 128.902C138.3 129.173 138.28 129.448 138.205 129.71C138.131 129.973 138.004 130.218 137.832 130.43C137.092 131.505 136.219 132.482 135.234 133.338C131.533 136.543 126.887 138.993 120.616 141.048C115.985 142.275 111.441 143.363 106.773 143.227C105.256 143.197 103.75 142.964 102.294 142.536C101.269 142.222 100.595 141.695 100.343 141.012C100.106 140.369 100.257 139.595 100.779 138.776C101.904 137.011 103.282 135.421 104.869 134.056C106.138 132.972 107.663 132.122 109.139 131.299C109.5 131.098 109.861 130.896 110.219 130.691C110.253 130.673 110.289 130.658 110.327 130.647Z" fill="#EFDFDF" stroke="#EFDFDF" stroke-width="0.395062"/>
<path d="M115.784 88.2124C115.759 88.1304 115.737 88.0475 115.714 87.9652C115.619 87.6017 115.505 87.2437 115.371 86.8928C114.848 85.5444 113.993 84.3498 112.885 83.4196C111.777 82.4893 110.453 81.8534 109.034 81.5709C107.659 81.3073 106.239 81.4002 104.91 81.8406C103.581 82.2811 102.387 83.0546 101.441 84.0872C99.1891 86.4607 98.2726 89.5818 98.7913 93.1127C99.4646 97.6975 103.886 101.038 108.647 100.558C109.289 100.495 109.923 100.369 110.54 100.183C114.319 99.0312 116.67 95.6811 116.422 91.4974C116.367 90.7969 116.275 90.0998 116.147 89.4091C116.094 89.0965 116.042 88.784 115.996 88.471C115.99 88.4281 115.975 88.3869 115.953 88.35C115.93 88.313 115.901 88.281 115.865 88.2557C115.84 88.2376 115.813 88.223 115.784 88.2124ZM112.499 89.6108L112.53 89.7381C112.565 89.8752 112.612 90.0603 112.653 90.2473C113.075 92.1948 112.83 93.8847 111.944 95.1338C111.157 96.2448 109.896 96.9372 108.296 97.1385C107.451 97.2147 106.6 97.1198 105.793 96.8595C104.986 96.5992 104.24 96.1786 103.6 95.6232C103.016 95.1173 102.549 94.4907 102.231 93.7864C101.913 93.0821 101.752 92.317 101.759 91.5444C101.737 89.4143 102.007 87.2673 104.126 85.9897C104.636 85.6779 105.183 85.4304 105.754 85.2526C106.831 84.8964 107.996 84.9181 109.058 85.3141C110.656 85.9402 111.878 87.4663 112.498 89.6095L112.499 89.6108Z" fill="#EFDFDF" stroke="#EFDFDF" stroke-width="0.395062"/>
</g>
<defs>
<clipPath id="clip0_564_340">
<rect width="48.242" height="77.1872" fill="white" transform="translate(23.8027 6.8587) rotate(17.8369)"/>
</clipPath>
<clipPath id="clip1_564_340">
<rect width="48.242" height="77.1872" fill="white" transform="translate(146 19.5521) rotate(-23.9094)"/>
</clipPath>
<clipPath id="clip2_564_340">
<rect width="48.242" height="77.1872" fill="white" transform="translate(77 78.0591) rotate(-16.9435)"/>
</clipPath>
</defs>
</svg>
