<svg width="20" height="26" viewBox="0 0 20 26" fill="none" xmlns="http://www.w3.org/2000/svg">
<path d="M9.99987 0.96344C4.99987 0.96344 0.475586 4.83888 0.475586 10.8333C0.475586 14.6611 3.39273 19.1634 9.21416 24.3504C9.43414 24.5424 9.71502 24.648 10.0056 24.648C10.2961 24.648 10.577 24.5424 10.797 24.3504C16.607 19.1634 19.5242 14.6611 19.5242 10.8333C19.5242 4.83888 14.9999 0.96344 9.99987 0.96344ZM9.99987 13C8.68987 13 7.61844 11.9167 7.61844 10.5921C7.61844 9.26755 8.68987 8.18422 9.99987 8.18422C11.3099 8.18422 12.3813 9.26755 12.3813 10.5921C12.3813 11.9167 11.3099 13 9.99987 13Z" fill="#DB7274"/>
</svg>
