<svg width="200" height="161" viewBox="0 0 200 161" fill="none" xmlns="http://www.w3.org/2000/svg">
<g clip-path="url(#clip0_552_329)">
<path d="M42.911 69.2763L70.7386 51.3697C63.3899 42.6903 56.2083 34.2083 49.026 25.7271C47.6047 24.0538 46.1966 22.3595 44.7436 20.7074C41.4262 16.9367 41.4237 13.0672 44.778 9.41435C45.0748 9.09117 45.4111 8.80501 45.7325 8.5047C57.5584 -2.55325 54.898 -1.22703 68.1576 3.49574C80.2757 7.81079 92.2135 12.7748 103.849 18.262C111.489 21.8645 117.587 22.7144 124.984 17.0335C134.896 9.36022 146.572 4.29236 158.945 2.29274C169.047 0.665351 179.001 0.75345 188.974 3.58465C202.552 7.43736 201.968 21.3062 195.497 27.8801C191.954 31.376 188.071 34.5105 183.906 37.2375C173.46 44.2773 162.91 51.1761 152.204 57.8195C150.648 58.6969 149.302 59.9062 148.265 61.3615C147.228 62.8169 146.523 64.4828 146.203 66.2408C141.041 89.2251 135.645 112.161 130.276 135.099C129.651 137.506 128.905 139.878 128.042 142.21C127.435 144.027 126.462 145.7 125.183 147.126C123.904 148.552 122.347 149.701 120.606 150.502C114.266 153.542 107.903 156.542 101.442 159.308C94.7576 162.171 91.2739 159.588 91.6965 152.321C92.7592 134.04 93.8288 115.759 94.9055 97.4791C94.9646 96.4681 94.9135 95.4537 94.9135 93.7418C92.9637 94.8566 91.3768 95.7584 89.7961 96.6706C74.5755 105.459 59.7168 115.003 43.1672 121.172C36.6093 123.638 29.7801 125.31 22.8249 126.153C16.0591 126.939 10.8159 123.599 7.86758 116.995C4.82021 110.483 2.92861 103.491 2.27738 96.3315C1.51301 86.2599 0.763601 76.1866 0.168301 66.1044C-0.168977 60.4041 2.37514 56.6289 7.70289 54.0179C19.9189 48.0297 18.5547 48.8961 26.7701 56.059C31.5192 60.198 36.3997 64.1933 41.2344 68.2363C41.7698 68.6193 42.33 68.9668 42.911 69.2763ZM101.362 148.481L102.519 149.01C105.43 147.675 108.243 146.026 111.273 145.076C116.408 143.469 117.773 139.529 118.945 134.917C125.315 109.84 131.812 84.7944 138.434 59.7806C139.148 57.0111 140.413 54.4144 142.155 52.1461C143.896 49.8779 146.078 47.9848 148.569 46.5809C157.735 41.0938 166.542 35.0008 175.401 29.0135C179.645 26.1461 183.788 23.0939 187.741 19.8392C191.078 17.0926 190.568 14.9957 186.525 13.6219C177.749 10.6454 168.737 10.1822 159.617 11.3517C147.829 12.8619 137.629 18.3324 127.807 24.5461C100.575 41.7775 73.3822 59.0717 46.2292 76.4287C41.3857 79.5162 40.6408 79.5735 36.3372 75.6362C30.931 70.6897 25.6508 65.6059 20.2641 60.6383C18.8392 59.3236 17.4989 57.1009 15.0949 58.7802C12.6291 60.5036 8.60555 60.9139 9.04057 65.3286C10.4319 79.4431 11.2624 93.6439 13.4235 107.641C15.1159 118.601 18.7072 120.089 29.4102 116.899C41.0167 113.44 51.6635 107.917 61.9932 101.747C72.934 95.2124 83.7498 88.4695 94.6414 81.8516C99.4108 78.9535 102.924 80.5712 103.701 86.0116C104.078 88.1774 104.274 90.3706 104.287 92.5688C103.94 106.194 103.503 119.815 103.047 133.437C102.998 134.883 102.581 136.316 102.43 137.764C102.041 141.334 101.713 144.91 101.366 148.483L101.362 148.481ZM79.5113 45.8369L105.587 29.201C91.2284 21.1916 76.2646 14.3199 60.8326 8.64907C59.7035 8.24224 58.0356 7.98951 57.1339 8.52932C54.3344 10.2113 51.7851 12.3081 50.0696 13.563L64.5584 29.4502C69.3569 34.7084 74.1545 39.964 79.5113 45.8369Z" fill="#E3AC61"/>
</g>
<defs>
<clipPath id="clip0_552_329">
<rect width="200" height="160.503" fill="white"/>
</clipPath>
</defs>
</svg>
