<svg width="188" height="183" viewBox="0 0 188 183" fill="none" xmlns="http://www.w3.org/2000/svg">
<mask id="mask0_564_339" style="mask-type:luminance" maskUnits="userSpaceOnUse" x="68" y="101" width="73" height="82">
<path d="M112.071 101.478L68.8057 121.693L97.3761 182.841L140.642 162.625L112.071 101.478Z" fill="white"/>
</mask>
<g mask="url(#mask0_564_339)">
<path d="M104.05 109.311C99.0761 109.014 94.0888 110.046 89.614 112.299C85.6146 114.025 81.9945 116.52 78.9696 119.636C76.1797 122.553 74.5214 125.512 73.9022 128.681C73.7121 129.799 73.7575 130.94 74.0354 132.032C74.3326 133.266 75.1348 133.893 76.237 133.752C77.5139 133.589 77.8904 132.563 78.1078 131.479L78.185 131.092C78.4229 129.881 78.6692 128.629 79.2391 127.605C80.1218 126.034 81.2095 124.582 82.4736 123.285C85.1801 120.509 88.6289 118.412 93.3279 116.689C96.5821 115.495 99.5535 114.964 102.412 115.066C106.496 115.212 109.597 116.369 111.892 118.604C115.142 121.772 115.783 125.233 113.796 128.891C112.634 130.917 111.341 132.87 109.926 134.737L109.861 134.827C109.188 135.754 108.434 136.655 107.704 137.526C107.191 138.138 106.661 138.771 106.159 139.412C102.716 143.816 101.027 148.295 100.996 153.107C100.967 154.289 101.105 155.466 101.405 156.605C101.644 157.472 102.064 158.277 102.637 158.97C103.21 159.663 103.924 160.229 104.736 160.633C105.551 161.052 106.14 160.949 106.491 160.788L106.501 160.783C106.743 160.659 106.952 160.481 107.113 160.264C107.274 160.047 107.382 159.797 107.428 159.534C107.54 159.07 107.658 158.607 107.777 158.144C108.089 156.919 108.41 155.652 108.62 154.384C109.276 150.416 110.93 146.653 113.827 142.542C115.638 140.043 117.32 137.457 118.865 134.793C119.936 132.897 120.749 130.872 121.281 128.774C122.376 124.336 121.517 120.255 118.728 116.644C115.276 112.18 110.338 109.713 104.05 109.311Z" fill="#EFDFDF"/>
<path d="M112.119 175.566C112.418 175.475 112.71 175.363 112.994 175.231C114.358 174.573 115.485 173.511 116.212 172.196C116.939 170.881 117.229 169.381 117.041 167.91C116.834 166.823 116.375 165.802 115.7 164.926C115.025 164.05 114.152 163.342 113.148 162.857C112.361 162.439 111.48 162.217 110.58 162.212C109.68 162.206 108.788 162.417 107.981 162.824C106.895 163.336 106.751 163.493 105.44 165.351C104.512 166.606 104.039 168.128 104.099 169.665C104.159 171.202 104.749 172.664 105.771 173.811C107.48 175.73 109.616 176.32 112.119 175.566ZM108.883 166.702C109.041 166.784 109.195 166.859 109.346 166.933C109.779 167.113 110.181 167.358 110.535 167.661C110.988 168.105 111.302 168.668 111.443 169.285C111.465 169.608 111.361 169.93 111.153 170.184C110.901 170.577 110.517 170.87 110.069 171.011C109.826 171.056 109.086 171.19 108.542 169.908C107.96 168.537 108.054 167.588 108.882 166.7L108.883 166.702Z" fill="#EFDFDF"/>
</g>
<mask id="mask1_564_339" style="mask-type:luminance" maskUnits="userSpaceOnUse" x="0" y="63" width="62" height="77">
<path d="M61.4112 73.7952L14.7578 63.5963L0.343579 129.532L46.997 139.731L61.4112 73.7952Z" fill="white"/>
</mask>
<g mask="url(#mask1_564_339)">
<path d="M50.2819 75.151C46.5097 71.8957 41.9198 69.6886 36.9964 68.7623C32.7705 67.7061 28.3788 67.4916 24.0835 68.1317C20.0956 68.7563 16.9815 70.1011 14.5661 72.2432C13.7363 73.0164 13.0799 73.9503 12.638 74.9867C12.1249 76.1481 12.3816 77.1335 13.3431 77.6905C14.4571 78.3356 15.379 77.749 16.2099 77.0194L16.5061 76.7587C17.4304 75.9407 18.3861 75.0952 19.4605 74.6277C21.1153 73.9154 22.8614 73.4215 24.653 73.1585C28.4891 72.5951 32.5025 73.0225 37.283 74.5052C40.5936 75.5321 43.277 76.9141 45.4864 78.73C48.6441 81.325 50.4056 84.1271 50.8723 87.2965C51.5323 91.7867 49.9407 94.9257 46.1412 96.6263C43.9874 97.5316 41.7747 98.2988 39.5169 98.9232L39.4107 98.955C38.3137 99.2838 37.1673 99.5414 36.0585 99.7906C35.2796 99.9657 34.4732 100.147 33.6859 100.352C28.2766 101.761 24.2152 104.296 21.2697 108.1C20.5291 109.023 19.9238 110.042 19.4707 111.129C19.135 111.963 18.9798 112.857 19.0146 113.756C19.0494 114.654 19.2735 115.538 19.6729 116.352C20.0662 117.18 20.5973 117.456 20.9739 117.54L20.9849 117.543C21.2523 117.59 21.5266 117.577 21.7863 117.502C22.0458 117.427 22.2833 117.294 22.4798 117.113C22.8502 116.812 23.225 116.516 23.6007 116.22C24.5918 115.436 25.6162 114.624 26.5534 113.744C29.4829 110.988 33.0818 109.003 37.8792 107.494C40.8353 106.608 43.7416 105.573 46.5867 104.394C48.5894 103.538 50.4638 102.422 52.1602 101.077C55.7248 98.2153 57.5198 94.4509 57.4952 89.8883C57.4619 84.2452 55.035 79.2877 50.2819 75.151Z" fill="#EFDFDF"/>
<path d="M16.4751 132.7C16.7678 132.809 17.068 132.898 17.3737 132.965C18.8574 133.27 20.3972 133.11 21.7731 132.507C23.1489 131.903 24.29 130.887 25.0333 129.604C25.529 128.615 25.7844 127.525 25.7799 126.419C25.7754 125.313 25.5111 124.22 25.0073 123.225C24.6362 122.415 24.0704 121.704 23.3584 121.154C22.6466 120.603 21.8101 120.229 20.9214 120.063C19.7475 119.81 19.538 119.848 17.3681 120.528C15.8686 120.962 14.5693 121.884 13.684 123.142C12.7986 124.4 12.3795 125.92 12.4954 127.452C12.6889 130.014 14.0284 131.78 16.4751 132.7ZM19.2839 123.692C19.3597 123.853 19.4373 124.006 19.5117 124.156C19.7471 124.562 19.9169 125.001 20.015 125.457C20.1049 126.085 20.0132 126.723 19.7503 127.299C19.572 127.569 19.2946 127.761 18.9742 127.837C18.536 127.996 18.0525 127.995 17.6111 127.837C17.3908 127.724 16.7211 127.382 17.0669 126.032C17.4367 124.589 18.0878 123.893 19.2847 123.69L19.2839 123.692Z" fill="#EFDFDF"/>
</g>
<mask id="mask2_564_339" style="mask-type:luminance" maskUnits="userSpaceOnUse" x="136" y="34" width="52" height="75">
<path d="M171.773 34.9389L136.292 43.3019L151.776 108.995L187.257 100.632L171.773 34.9389Z" fill="white"/>
</mask>
<g mask="url(#mask2_564_339)">
<path d="M139.416 52.6126C140.773 53.0394 141.342 52.0284 141.757 51.2893L141.796 51.2187C143.08 48.9384 145.112 47.2501 148.383 45.7432C153.418 43.4262 158.083 43.2119 162.649 45.0885C168.367 47.4392 172.705 54.1813 169.744 60.9743C168.941 62.7503 167.884 64.4094 166.605 65.9016C165.003 67.8158 163.254 69.6741 161.564 71.4713C160.895 72.1822 160.226 72.8926 159.564 73.6084C156.782 76.5171 155.24 80.3407 155.256 84.2891C155.254 85.9855 155.399 87.6619 155.553 89.4365C155.623 90.2464 155.696 91.0724 155.754 91.9223C155.757 91.9553 155.764 91.9872 155.777 92.0179C155.886 92.2954 155.992 92.5907 156.103 92.8969C156.372 93.7064 156.704 94.4933 157.097 95.2521C157.649 96.2556 158.737 96.6962 160.006 96.4297L160.093 96.4094C160.634 96.2992 161.13 96.0291 161.513 95.6368C161.895 95.2434 162.145 94.7467 162.229 94.2142C162.366 93.3556 162.381 92.4846 162.275 91.6248C162.181 90.7046 162.057 89.778 161.937 88.8801C161.772 87.6495 161.603 86.3771 161.51 85.1241C161.389 83.7665 161.555 82.3953 161.999 81.0957C162.443 79.796 163.156 78.5955 164.092 77.5685C164.629 76.9636 165.178 76.3678 165.726 75.772C166.751 74.6588 167.812 73.5078 168.777 72.3097L169.008 72.0245C170.704 69.9218 172.457 67.7477 173.88 65.423C175.874 62.2328 176.646 58.4701 176.055 54.8098C174.917 47.8019 170.874 42.9937 164.036 40.5195C156.399 37.7559 149.104 39.2043 141.738 44.9495C140.194 46.1889 139.054 47.8405 138.463 49.6966C138.002 51.0445 138.411 52.2948 139.416 52.6126Z" fill="#EFDFDF"/>
<path d="M161.689 98.7492C160.54 99.0154 159.69 99.5361 159.201 100.297C158.707 101.064 158.592 102.032 158.861 103.177C158.983 103.727 159.218 104.247 159.55 104.705C159.882 105.163 160.305 105.552 160.795 105.847C161.568 106.309 162.501 106.453 163.391 106.25C163.421 106.243 163.45 106.236 163.479 106.229C165.351 105.736 166.69 103.502 166.288 101.542C166.191 101.068 165.998 100.618 165.718 100.22C165.438 99.8227 165.078 99.4849 164.659 99.2275C164.225 98.9572 163.738 98.7754 163.228 98.6929C162.718 98.6113 162.194 98.6301 161.689 98.7492Z" fill="#EFDFDF"/>
</g>
<mask id="mask3_564_339" style="mask-type:luminance" maskUnits="userSpaceOnUse" x="71" y="0" width="39" height="69">
<path d="M109.679 0.834147L73.2344 0.0308838L71.7471 67.5072L108.192 68.3105L109.679 0.834147Z" fill="white"/>
</mask>
<g mask="url(#mask3_564_339)">
<path d="M73.9235 9.82749C75.1297 10.581 75.9342 9.745 76.5216 9.13364L76.5773 9.07521C78.3924 7.1899 80.7828 6.0651 84.3273 5.42682C89.782 4.4466 94.352 5.40922 98.3013 8.37095C103.246 12.0805 105.755 19.6953 101.185 25.5284C99.9622 27.0463 98.5229 28.3872 96.9105 29.511C94.8796 30.9622 92.7209 32.3226 90.6334 33.6382C89.808 34.1588 88.9823 34.6787 88.1621 35.2056C84.7391 37.3235 82.287 40.6381 81.3122 44.4643C80.8848 46.1059 80.6049 47.7652 80.3093 49.5218C80.1738 50.3233 80.0371 51.1411 79.8802 51.9785C79.8746 52.0112 79.8739 52.0439 79.8781 52.0767C79.9144 52.3728 79.9432 52.6852 79.9732 53.0093C80.0309 53.8605 80.155 54.7056 80.3448 55.5385C80.6279 56.6486 81.5706 57.348 82.866 57.4083L82.9547 57.4102C83.5069 57.4395 84.0548 57.3025 84.5234 57.0186C84.9921 56.7337 85.3589 56.3156 85.5732 55.821C85.9209 55.0241 86.1543 54.1849 86.2672 53.3259C86.4068 52.4116 86.5193 51.4835 86.6286 50.5842C86.778 49.3517 86.9328 48.0774 87.1575 46.8413C87.3804 45.4967 87.8855 44.211 88.6413 43.0643C89.3972 41.9175 90.3877 40.934 91.5517 40.1747C92.2233 39.7239 92.9037 39.2846 93.5842 38.8455C94.8559 38.025 96.1711 37.1767 97.4064 36.2591L97.701 36.0408C99.8702 34.4307 102.113 32.7659 104.073 30.8723C106.804 28.2842 108.494 24.8352 108.841 21.1439C109.497 14.0745 106.788 8.40597 100.79 4.29597C94.0897 -0.294867 86.665 -0.722326 78.0935 2.99183C76.2875 3.80419 74.7701 5.11718 73.7322 6.76566C72.9483 7.95503 73.03 9.26772 73.9235 9.82749Z" fill="#EFDFDF"/>
<path d="M83.9138 60.0758C82.7348 60.0453 81.7812 60.3362 81.1174 60.9498C80.4465 61.5682 80.0924 62.4774 80.0651 63.6526C80.0459 64.216 80.1423 64.7778 80.3489 65.3048C80.5555 65.8318 80.8682 66.3138 81.2685 66.7226C81.9009 67.3633 82.7671 67.737 83.68 67.7632C83.7105 67.7639 83.7403 67.7645 83.7703 67.7652C85.7067 67.7575 87.5631 65.9308 87.6648 63.933C87.6905 63.4494 87.6157 62.9656 87.4446 62.5104C87.2735 62.0553 87.0096 61.6378 86.6688 61.2837C86.3165 60.9132 85.8908 60.6152 85.4175 60.4072C84.9441 60.2003 84.4328 60.0873 83.9138 60.0758Z" fill="#EFDFDF"/>
</g>
</svg>
