<svg width="100" height="100" viewBox="0 0 100 100" fill="none" xmlns="http://www.w3.org/2000/svg">
<g clip-path="url(#clip0_550_501)">
<path d="M68.9718 62.5105C72.2848 66.4361 74.0189 70.7252 73.9473 75.6594C73.8486 82.4574 70.3564 87.5748 65.4493 91.7768C59.7307 96.6729 52.8197 98.7381 45.4234 99.3181C43.8035 99.411 42.1798 99.4161 40.5593 99.3342C39.8593 99.3206 39.1657 99.1974 38.5039 98.9684C35.8518 98.0077 35.4487 96.0432 37.552 94.1948C39.6167 92.3813 41.8449 90.7471 43.8338 88.8574C45.3579 87.3987 46.7382 85.7961 47.9556 84.0729C49.2446 82.2587 49.358 80.1658 48.559 77.7535C47.2853 78.3465 46.0653 78.8187 44.944 79.4613C42.5931 80.8084 41.2669 80.7523 39.25 78.9819C37.2903 77.2613 35.3645 75.5019 33.4149 73.7697C33.1249 73.5432 32.8217 73.3342 32.5071 73.1439C31.3244 74.2368 30.2251 75.3271 29.0467 76.3232C27.4851 77.6439 25.9361 77.6781 24.9228 76.509C23.973 75.4148 24.1293 73.9684 25.5017 72.5619C26.4755 71.5632 27.5884 70.6993 28.4107 69.9748C26.1995 67.2761 23.9709 65.0632 22.3686 62.4669C20.4961 59.4308 22.8102 56.7246 24.2563 53.7541C21.4958 53.5809 19.2258 54.0865 17.4011 55.486C15.6598 56.8979 14.0895 58.5084 12.7221 60.2849C11.3976 61.9193 10.3673 63.7914 9.19146 65.5477C8.08288 67.2039 6.9472 68.9445 4.61315 68.7039C2.99729 68.5374 0.74415 65.6264 0.594674 63.4387C0.255919 58.451 0.891087 53.597 3.22003 49.0882C7.48662 40.831 14.208 35.4617 22.9639 32.5891C26.6326 31.3857 30.3285 31.7689 34.0704 32.9088C34.2779 32.67 34.5214 32.4321 34.7162 32.1597C44.8213 18.0375 58.592 9.07316 74.9009 3.74965C80.4551 1.93688 86.0744 0.286711 91.9951 0.135542C93.4738 0.0978555 94.9538 -0.0152212 96.4318 0.0017166C98.3596 0.0233123 99.3209 0.707187 99.2428 2.59025C99.1428 6.23434 98.8022 9.86781 98.2215 13.4668C95.8422 27.0014 89.3331 38.6092 80.8789 49.1961C77.5886 53.3171 73.8835 57.1082 70.3628 61.0458C69.9467 61.5099 69.5041 61.9512 68.9718 62.5105ZM36.0746 68.7923C38.2765 70.5419 39.8801 71.9148 41.6039 73.1116C41.8969 73.2497 42.2169 73.32 42.5408 73.3187C42.8646 73.3168 43.184 73.2432 43.4755 73.1019C46.208 71.6535 49.0024 70.2677 51.546 68.5258C60.6055 62.3217 68.8015 55.1134 75.6912 46.5378C79.4293 41.8854 82.8493 36.9785 86.4835 32.092L65.4254 12.5365C64.7301 12.8616 64.0529 13.2236 63.3965 13.621C59.2891 16.3467 55.1016 18.9652 51.1352 21.8836C46.6891 25.1543 42.9268 29.1512 39.568 33.5567C33.9976 40.8624 30.718 49.3935 26.5962 57.4728C26.1864 58.2774 26.4163 59.8979 26.9973 60.6173C28.5093 62.4902 30.3818 64.0726 32.4135 66.0684C35.5893 62.7764 38.384 59.7001 41.3837 56.8347C43.1118 55.2832 44.9648 53.8766 46.9237 52.629C47.9535 51.9295 49.2682 51.6911 50.2104 52.7654C51.1653 53.8545 50.3429 54.9211 49.6718 55.7964C48.8784 56.7851 48.0188 57.7188 47.0989 58.5911C45.1935 60.4746 43.2837 62.3526 41.3206 64.1743C39.6738 65.7052 37.9488 67.149 36.0746 68.7923ZM95.2518 4.12187C86.2415 4.14008 78.2886 7.48993 70.1802 10.2161L70.0357 10.7771L88.6848 26.4988C91.8802 21.4344 94.3306 13.0849 95.2518 4.12187ZM50.6259 91.3806C58.2131 89.9516 64.0913 86.1032 67.3944 79.0503C69.5964 74.3432 68.0583 69.9503 65.4628 65.7735C61.0942 69.1084 56.9157 72.2994 52.738 75.489C56.0286 81.2961 54.3433 86.4103 50.6259 91.3806ZM31.7402 36.448C20.8924 34.6695 5.89704 49.3376 6.86965 59.4075C11.2993 52.4123 16.9837 48.1977 25.5377 49.714L31.7402 36.448Z" fill="#EFDFDF"/>
<path d="M9.74451 90.6961C10.0659 90.1148 10.411 89.0568 11.0995 88.3213C13.6961 85.549 16.3879 82.8652 19.0815 80.1858C19.8724 79.3987 20.873 78.9026 21.9024 79.7426C22.9881 80.6284 22.513 81.6871 21.8715 82.5632C19.6696 85.5697 17.4626 88.5761 15.1358 91.4852C14.4437 92.28 13.564 92.8897 12.5765 93.2581C11.1106 93.8361 9.69329 92.6736 9.74451 90.6961Z" fill="#EFDFDF"/>
<path d="M33.8621 79.9161C35.4233 79.9587 36.5582 81.3665 35.8637 82.4568C34.0951 85.2013 32.1521 87.8297 30.0469 90.3252C29.2927 91.2284 27.9385 91.1006 26.9807 90.2361C26.5427 89.8658 26.2562 89.3471 26.1756 88.7787C26.0949 88.211 26.2258 87.6329 26.5433 87.1548C27.118 86.1981 27.8013 85.311 28.5796 84.5103C29.7327 83.2826 30.9509 82.1116 32.2035 80.9865C32.7217 80.5787 33.277 80.2207 33.8621 79.9161Z" fill="#EFDFDF"/>
<path d="M19.915 68.0058C19.6169 68.6645 19.2649 69.2974 18.8623 69.8974C16.8962 72.3516 14.8998 74.7813 12.8732 77.1858C12.4923 77.5961 12.0494 77.9439 11.5605 78.2155C10.5485 78.8381 9.51951 78.8368 8.70351 77.9155C7.86041 76.9639 8.04757 75.9071 8.8928 75.0884C11.6596 72.4064 14.4581 69.7555 17.3121 67.1671C17.6852 66.8284 18.4796 66.7735 19.0254 66.8742C19.3531 66.9348 19.5784 67.5516 19.915 68.0058Z" fill="#EFDFDF"/>
<path d="M64.4947 23.0538C67.2443 23.0161 69.3643 24.1407 71.492 25.9128C73.6978 27.7497 75.3456 29.709 76.1597 32.4474C78.0391 38.7813 74.3204 43.4439 68.2901 44.2967C63.403 44.9877 59.2575 42.9751 56.2421 39.1493C53.6591 35.871 53.5893 32.0562 55.3808 28.3905C57.1873 24.6917 60.4414 23.0932 64.4947 23.0538ZM58.6905 33.2016C59.3968 34.4203 59.9037 35.9739 60.9559 36.9237C62.0459 37.9074 63.6308 38.3947 65.0604 38.9384C66.9385 39.6532 68.5643 38.8961 69.8404 37.5674C71.0759 36.2822 71.1217 34.668 70.5178 33.0238C69.5668 30.4315 67.3488 29.1306 65.121 27.9572C63.1206 26.9037 61.2223 27.5338 60.0819 29.5066C59.5005 30.5106 59.2405 31.7005 58.6905 33.2016Z" fill="#EFDFDF"/>
</g>
<defs>
<clipPath id="clip0_550_501">
<rect width="100" height="100" fill="white"/>
</clipPath>
</defs>
</svg>
