<svg width="42" height="29" viewBox="0 0 42 29" fill="none" xmlns="http://www.w3.org/2000/svg">
<g clip-path="url(#clip0_519_500)">
<path d="M0 24.7283C0 26.4654 1.40823 27.8738 3.14549 27.8738H38.8545C40.5917 27.8738 42 26.4655 42 24.7283V22.0806H0V24.7283Z" fill="#C8414B"/>
<path d="M38.8545 0.356537H3.14549C1.40823 0.356537 0 1.76477 0 3.50203V6.14967H42V3.50203C42 1.76477 40.5918 0.356537 38.8545 0.356537Z" fill="#C8414B"/>
<path d="M42 6.1499H0V22.0812H42V6.1499Z" fill="#FFD250"/>
<path d="M17.7415 14.1151L18.3555 11.3522C18.4121 11.0978 18.2184 10.8564 17.9577 10.8564H17.5253C17.2647 10.8564 17.0711 11.0979 17.1275 11.3522L17.7415 14.1151Z" fill="#C8414B"/>
<path d="M18.4658 12.6665H17.0176V18.8213H18.4658V12.6665Z" fill="#F5F5F5"/>
<path d="M18.8272 11.943H16.6548V12.6671H18.8272V11.943Z" fill="#FAB446"/>
<path d="M18.8279 14.1151H15.207V14.8393H18.8279V14.1151Z" fill="#C8414B"/>
<path d="M18.8277 17.0116L16.6553 16.2876V15.5634L18.8277 16.2876V17.0116Z" fill="#C8414B"/>
<path d="M6.87921 14.1151L7.49321 11.3522C7.54982 11.0978 7.35614 10.8564 7.09544 10.8564H6.66298C6.40236 10.8564 6.20877 11.0979 6.26521 11.3522L6.87921 14.1151Z" fill="#C8414B"/>
<path d="M9.41363 11.9427C9.01372 11.9427 8.68945 12.267 8.68945 12.6669V17.3738C8.68945 18.2535 9.51059 19.9083 12.3101 19.9083C15.1097 19.9083 15.9308 18.2536 15.9308 17.3738V12.6669C15.9308 12.267 15.6066 11.9427 15.2067 11.9427H9.41363Z" fill="#F5F5F5"/>
<path d="M12.3101 15.5634H8.68945V12.6669C8.68945 12.267 9.01372 11.9427 9.41363 11.9427H12.3101V15.5634Z" fill="#C8414B"/>
<path d="M12.3101 15.5634H15.9308V17.3738C15.9308 18.3736 15.1203 19.1841 14.1204 19.1841C13.1205 19.1841 12.3101 18.3736 12.3101 17.3738V15.5634Z" fill="#C8414B"/>
<path d="M8.68945 15.5634H12.3101V17.3738C12.3101 18.3736 11.4997 19.1841 10.4998 19.1841C9.49992 19.1841 8.68945 18.3736 8.68945 17.3738V15.5634Z" fill="#FAB446"/>
<path d="M11.586 18.8139V15.5634H10.8618V19.1476C11.1312 19.093 11.3746 18.9737 11.586 18.8139Z" fill="#C8414B"/>
<path d="M10.1377 19.1476V15.5634H9.41357V18.8139C9.62505 18.9737 9.86844 19.093 10.1377 19.1476Z" fill="#C8414B"/>
<path d="M11.5865 14.1151H9.41406V14.8393H11.5865V14.1151Z" fill="#FFB441"/>
<path d="M11.5865 12.6665H9.41406V13.3906H11.5865V12.6665Z" fill="#FAB446"/>
<path d="M11.2241 13.0971H9.77588V14.409H11.2241V13.0971Z" fill="#FAB446"/>
<path d="M7.60305 12.6665H6.15479V18.8213H7.60305V12.6665Z" fill="#F5F5F5"/>
<path d="M7.9654 18.4604H5.79297V19.1845H7.9654V18.4604Z" fill="#FAB446"/>
<path d="M7.9654 11.943H5.79297V12.6671H7.9654V11.943Z" fill="#FAB446"/>
<path d="M8.32768 19.1839H5.43115V19.908H8.32768V19.1839Z" fill="#5064AA"/>
<path d="M19.19 18.4603H17.0176V19.1845H19.19V18.4603Z" fill="#FAB446"/>
<path d="M19.1895 19.1839H16.293V19.908H19.1895V19.1839Z" fill="#5064AA"/>
<path d="M14.4831 11.2186H10.1382V11.9428H14.4831V11.2186Z" fill="#FAB446"/>
<path d="M12.6729 9.04645H11.9487V11.2189H12.6729V9.04645Z" fill="#FFB441"/>
<path d="M11.5862 10.1324C10.9872 10.1324 10.5 9.64511 10.5 9.0462C10.5 8.44721 10.9873 7.96002 11.5862 7.96002C12.1852 7.96002 12.6724 8.44729 12.6724 9.0462C12.6724 9.64511 12.1852 10.1324 11.5862 10.1324ZM11.5862 8.68411C11.3864 8.68411 11.2241 8.84637 11.2241 9.0462C11.2241 9.24594 11.3863 9.40828 11.5862 9.40828C11.786 9.40828 11.9483 9.24603 11.9483 9.0462C11.9483 8.84645 11.786 8.68411 11.5862 8.68411Z" fill="#F5F5F5"/>
<path d="M13.0344 10.1324C12.4354 10.1324 11.9482 9.64511 11.9482 9.0462C11.9482 8.44721 12.4355 7.96002 13.0344 7.96002C13.6334 7.96002 14.1206 8.44729 14.1206 9.0462C14.1206 9.64511 13.6333 10.1324 13.0344 10.1324ZM13.0344 8.68411C12.8347 8.68411 12.6723 8.84637 12.6723 9.0462C12.6723 9.24594 12.8346 9.40828 13.0344 9.40828C13.2342 9.40828 13.3965 9.24603 13.3965 9.0462C13.3964 8.84645 13.2342 8.68411 13.0344 8.68411Z" fill="#F5F5F5"/>
<path d="M14.4827 10.8566C13.8837 10.8566 13.3965 10.3693 13.3965 9.77038C13.3965 9.17139 13.8837 8.6842 14.4827 8.6842C15.0817 8.6842 15.5688 9.17147 15.5688 9.77038C15.5688 10.3693 15.0816 10.8566 14.4827 10.8566ZM14.4827 9.40829C14.2829 9.40829 14.1206 9.57055 14.1206 9.77038C14.1206 9.97013 14.2828 10.1325 14.4827 10.1325C14.6824 10.1325 14.8447 9.97021 14.8447 9.77038C14.8447 9.57055 14.6824 9.40829 14.4827 9.40829Z" fill="#F5F5F5"/>
<path d="M10.1379 10.8566C9.53894 10.8566 9.05176 10.3693 9.05176 9.77038C9.05176 9.17139 9.53902 8.6842 10.1379 8.6842C10.7369 8.6842 11.2241 9.17147 11.2241 9.77038C11.2242 10.3693 10.7369 10.8566 10.1379 10.8566ZM10.1379 9.40829C9.93819 9.40829 9.77585 9.57055 9.77585 9.77038C9.77585 9.97013 9.93811 10.1325 10.1379 10.1325C10.3378 10.1325 10.5 9.97013 10.5 9.7703C10.5 9.57055 10.3378 9.40829 10.1379 9.40829Z" fill="#F5F5F5"/>
<path d="M14.483 17.0117V17.3737C14.483 17.5734 14.3206 17.7358 14.1209 17.7358C13.9213 17.7358 13.7588 17.5734 13.7588 17.3737V17.0117H14.483ZM15.2071 16.2876H13.0347V17.3737C13.0347 17.9727 13.5219 18.4599 14.1208 18.4599C14.7198 18.4599 15.207 17.9727 15.207 17.3737V16.2876H15.2071Z" fill="#FAB446"/>
<path d="M14.1207 14.8393C13.7208 14.8393 13.3965 14.5151 13.3965 14.1152V13.391C13.3965 12.9911 13.7208 12.6668 14.1207 12.6668C14.5206 12.6668 14.8448 12.9911 14.8448 13.391V14.1152C14.8448 14.5151 14.5206 14.8393 14.1207 14.8393Z" fill="#FFA0D2"/>
<path d="M12.3103 16.6492C12.9102 16.6492 13.3965 16.1629 13.3965 15.563C13.3965 14.9631 12.9102 14.4768 12.3103 14.4768C11.7104 14.4768 11.2241 14.9631 11.2241 15.563C11.2241 16.1629 11.7104 16.6492 12.3103 16.6492Z" fill="#5064AA"/>
<path d="M12.6729 7.59775H11.9487V9.77018H12.6729V7.59775Z" fill="#FAB446"/>
<path d="M10.1377 11.2186L9.41357 10.4944L9.83776 10.0703C10.4934 9.41457 11.3828 9.04617 12.3102 9.04617C13.2375 9.04617 14.1268 9.41457 14.7826 10.0703L15.2068 10.4944L14.4826 11.2186H10.1377Z" fill="#C8414B"/>
<path d="M12.3103 10.8564C12.5103 10.8564 12.6724 10.6943 12.6724 10.4943C12.6724 10.2943 12.5103 10.1322 12.3103 10.1322C12.1104 10.1322 11.9482 10.2943 11.9482 10.4943C11.9482 10.6943 12.1104 10.8564 12.3103 10.8564Z" fill="#FFD250"/>
<path d="M10.8616 10.8564C11.0616 10.8564 11.2237 10.6943 11.2237 10.4943C11.2237 10.2943 11.0616 10.1322 10.8616 10.1322C10.6616 10.1322 10.4995 10.2943 10.4995 10.4943C10.4995 10.6943 10.6616 10.8564 10.8616 10.8564Z" fill="#FFD250"/>
<path d="M13.7581 10.8564C13.9581 10.8564 14.1202 10.6943 14.1202 10.4943C14.1202 10.2943 13.9581 10.1322 13.7581 10.1322C13.5581 10.1322 13.396 10.2943 13.396 10.4943C13.396 10.6943 13.5581 10.8564 13.7581 10.8564Z" fill="#FFD250"/>
<path d="M9.41383 14.1151H5.79297V14.8393H9.41383V14.1151Z" fill="#C8414B"/>
<path d="M5.79297 17.0117L7.96532 16.2876V15.5634L5.79297 16.2876V17.0117Z" fill="#C8414B"/>
</g>
<defs>
<clipPath id="clip0_519_500">
<rect width="42" height="28" fill="white" transform="translate(0 0.115143)"/>
</clipPath>
</defs>
</svg>
