<svg width="10" height="4" viewBox="0 0 10 4" fill="none" xmlns="http://www.w3.org/2000/svg">
<path d="M6.81818 1.55496C7.24102 1.55496 7.56871 1.41912 7.80127 1.14745C8.04087 0.868633 8.1642 0.486148 8.17125 0H10C10 0.521895 9.92953 0.997319 9.78858 1.42627C9.65469 1.84808 9.45737 2.21269 9.19662 2.52011C8.93587 2.82038 8.61522 3.0563 8.23467 3.22788C7.86117 3.39231 7.43481 3.47453 6.9556 3.47453C6.5821 3.47453 6.21917 3.42091 5.86681 3.31367C5.52149 3.20643 5.19028 3.08847 4.87315 2.95979C4.55603 2.8311 4.253 2.71314 3.96406 2.6059C3.68217 2.49866 3.42142 2.44504 3.18182 2.44504C2.75899 2.44504 2.42777 2.58445 2.18816 2.86327C1.9556 3.14209 1.8358 3.521 1.82875 4H0C0 3.47811 0.0669486 3.00626 0.200846 2.58445C0.34179 2.1555 0.542636 1.79088 0.803383 1.49062C1.06413 1.1832 1.38125 0.947274 1.75476 0.782842C2.13531 0.618409 2.56519 0.536193 3.0444 0.536193C3.41085 0.536193 3.77026 0.589812 4.12262 0.697051C4.47498 0.80429 4.80973 0.922252 5.12685 1.05094C5.44398 1.17248 5.74348 1.28686 6.02537 1.3941C6.31431 1.50134 6.57858 1.55496 6.81818 1.55496Z" fill="#DB7274"/>
</svg>
