<svg width="42" height="30" viewBox="0 0 42 30" fill="none" xmlns="http://www.w3.org/2000/svg">
<g clip-path="url(#clip0_519_491)">
<path d="M38.8545 1.19656H3.14549C1.40823 1.19656 0 2.62117 0 4.37863V25.8518C0 27.6091 1.40823 29.0338 3.14549 29.0338H38.8545C40.5917 29.0338 42 27.6092 42 25.8518V4.37863C42 2.62117 40.5918 1.19656 38.8545 1.19656Z" fill="#41479B"/>
<path d="M41.9564 3.85258C41.7085 2.34565 40.4145 1.19647 38.8545 1.19647H38.0361L24.6207 10.0881V1.19656H17.3793V10.0882L3.96391 1.19656H3.14549C1.5855 1.19656 0.291457 2.34565 0.0435586 3.85266L11.5097 11.4524H0V18.778H11.5097L0.0435586 26.3776C0.291457 27.8846 1.5855 29.0337 3.14549 29.0337H3.96391L17.3793 20.1421V29.0337H24.6207V20.1421L38.0361 29.0337H38.8545C40.4145 29.0337 41.7085 27.8847 41.9564 26.3776L30.4903 18.7779H42V11.4523H30.4903L41.9564 3.85258Z" fill="#F5F5F5"/>
<path d="M23.1724 1.19656H18.8276V12.9175H0V17.3129H18.8276V29.0338H23.1724V17.3129H42V12.9175H23.1724V1.19656Z" fill="#FF4B55"/>
<path d="M2.03398 28.8286L17.3396 18.778H14.6795L0.756836 27.9206C1.09751 28.3228 1.53531 28.638 2.03398 28.8286Z" fill="#FF4B55"/>
<path d="M28.4145 18.778H25.7544L40.5788 28.5125C40.9936 28.2369 41.3398 27.8647 41.5867 27.4275L28.4145 18.778Z" fill="#FF4B55"/>
<path d="M0.332031 2.95577L13.2708 11.4524H15.9309L1.26932 1.82443C0.875652 2.12086 0.553516 2.5084 0.332031 2.95577Z" fill="#FF4B55"/>
<path d="M27.2807 11.4524L41.2289 2.29288C40.8845 1.89198 40.4432 1.57863 39.9411 1.39166L24.6206 11.4524H27.2807Z" fill="#FF4B55"/>
</g>
<defs>
<clipPath id="clip0_519_491">
<rect width="42" height="29" fill="white" transform="translate(0 0.615143)"/>
</clipPath>
</defs>
</svg>
