<svg width="36" height="37" viewBox="0 0 36 37" fill="none" xmlns="http://www.w3.org/2000/svg">
<path d="M35.247 9.33715C35.0436 8.57132 34.6426 7.87234 34.0839 7.31021C33.5253 6.74809 32.8287 6.34255 32.064 6.13421C29.2575 5.37695 18 5.37695 18 5.37695C18 5.37695 6.7425 5.37695 3.9345 6.13421C3.17011 6.34292 2.47394 6.74861 1.91562 7.31069C1.35729 7.87278 0.956387 8.57156 0.753 9.33715C0 12.1622 0 18.0553 0 18.0553C0 18.0553 0 23.9483 0.753 26.7734C0.956379 27.5393 1.35746 28.2382 1.91609 28.8003C2.47471 29.3624 3.17126 29.768 3.936 29.9763C6.7425 30.7336 18 30.7336 18 30.7336C18 30.7336 29.2575 30.7336 32.0655 29.9763C32.8303 29.7682 33.5269 29.3626 34.0856 28.8005C34.6443 28.2383 35.0452 27.5393 35.2485 26.7734C36 23.9483 36 18.0553 36 18.0553C36 18.0553 36 12.1622 35.247 9.33715ZM14.3175 23.4055V12.7051L23.727 18.0553L14.3175 23.4055Z" fill="#FFF4F4"/>
</svg>
